<svg width="27" height="26" viewBox="0 0 27 26" fill="none" xmlns="http://www.w3.org/2000/svg">
<path d="M26.3333 12.9998C26.3333 13.4721 26.1733 13.8682 25.8533 14.1882C25.5333 14.5082 25.1378 14.6676 24.6667 14.6665L6.04167 14.6665L14.1667 22.7915C14.5 23.1248 14.6667 23.5209 14.6667 23.9798C14.6667 24.4387 14.5 24.8343 14.1667 25.1665C13.8333 25.4998 13.4444 25.6665 13 25.6665C12.5556 25.6665 12.1667 25.4998 11.8333 25.1665L0.833332 14.1665C0.666666 13.9998 0.548888 13.8193 0.479999 13.6248C0.41111 13.4304 0.376111 13.2221 0.374999 12.9998C0.374999 12.7776 0.409999 12.5621 0.479999 12.3532C0.549999 12.1443 0.667777 11.971 0.833332 11.8332L11.8333 0.833171C12.1667 0.499837 12.5556 0.333169 13 0.333169C13.4444 0.333169 13.8333 0.499837 14.1667 0.833171C14.5 1.16651 14.6667 1.56261 14.6667 2.0215C14.6667 2.48039 14.5 2.87595 14.1667 3.20817L6.04167 11.3332L24.6667 11.3332C25.1389 11.3332 25.535 11.4932 25.855 11.8132C26.175 12.1332 26.3344 12.5287 26.3333 12.9998Z" fill="#FFD0BF"/>
</svg>
