<svg width="18" height="14" viewBox="0 0 18 14" fill="none" xmlns="http://www.w3.org/2000/svg">
<path d="M14.542 8.74581L14.5498 8.7373M6.03011 8.74581L6.03785 8.7373M3.32178 11.8333V5.64283C3.32178 5.23238 3.48483 4.83874 3.77506 4.5485C4.0653 4.25827 4.45894 4.09521 4.8694 4.09521H15.7027C16.1132 4.09521 16.5068 4.25827 16.7971 4.5485C17.0873 4.83874 17.2503 5.23238 17.2503 5.64283V11.8333C17.2503 12.2438 17.0873 12.6374 16.7971 12.9276C16.5068 13.2179 16.1132 13.3809 15.7027 13.3809H4.8694C4.45894 13.3809 4.0653 13.2179 3.77506 12.9276C3.48483 12.6374 3.32178 12.2438 3.32178 11.8333Z" stroke="#FFD0BF" stroke-width="0.5" stroke-linecap="round" stroke-linejoin="round"/>
<path d="M3.32143 10.2857H2.54762C2.13716 10.2857 1.74352 10.1227 1.45329 9.83243C1.16305 9.54219 1 9.14855 1 8.73809V2.54762C1 2.13716 1.16305 1.74352 1.45329 1.45329C1.74352 1.16305 2.13716 1 2.54762 1H13.381C13.7914 1 14.185 1.16305 14.4753 1.45329C14.7655 1.74352 14.9286 2.13716 14.9286 2.54762V4.09524M10.2857 10.2857C9.87526 10.2857 9.48162 10.1227 9.19138 9.83243C8.90115 9.54219 8.73809 9.14855 8.73809 8.73809C8.73809 8.32764 8.90115 7.934 9.19138 7.64376C9.48162 7.35353 9.87526 7.19048 10.2857 7.19048C10.6962 7.19048 11.0898 7.35353 11.38 7.64376C11.6703 7.934 11.8333 8.32764 11.8333 8.73809C11.8333 9.14855 11.6703 9.54219 11.38 9.83243C11.0898 10.1227 10.6962 10.2857 10.2857 10.2857Z" stroke="#FFD0BF" stroke-width="0.5" stroke-linecap="round" stroke-linejoin="round"/>
</svg>
