<svg width="20" height="18" viewBox="0 0 20 18" fill="none" xmlns="http://www.w3.org/2000/svg">
<path d="M19.1429 2.857H6.57143M4.28572 2.857H0.857147M19.1429 14.2856H6.57143M4.28572 14.2856H0.857147M13.4286 8.57129H0.857147M19.1429 8.57129H15.7143M5.42858 0.571289C5.73168 0.571289 6.02237 0.691697 6.2367 0.906024C6.45103 1.12035 6.57143 1.41104 6.57143 1.71415V3.99986C6.57143 4.30297 6.45103 4.59366 6.2367 4.80798C6.02237 5.02231 5.73168 5.14272 5.42858 5.14272C5.12547 5.14272 4.83478 5.02231 4.62045 4.80798C4.40613 4.59366 4.28572 4.30297 4.28572 3.99986V1.71415C4.28572 1.41104 4.40613 1.12035 4.62045 0.906024C4.83478 0.691697 5.12547 0.571289 5.42858 0.571289ZM5.42858 11.9999C5.73168 11.9999 6.02237 12.1203 6.2367 12.3346C6.45103 12.5489 6.57143 12.8396 6.57143 13.1427V15.4284C6.57143 15.7315 6.45103 16.0222 6.2367 16.2366C6.02237 16.4509 5.73168 16.5713 5.42858 16.5713C5.12547 16.5713 4.83478 16.4509 4.62045 16.2366C4.40613 16.0222 4.28572 15.7315 4.28572 15.4284V13.1427C4.28572 12.8396 4.40613 12.5489 4.62045 12.3346C4.83478 12.1203 5.12547 11.9999 5.42858 11.9999ZM14.5714 6.28558C14.8745 6.28558 15.1652 6.40598 15.3796 6.62031C15.5939 6.83464 15.7143 7.12533 15.7143 7.42843V9.71415C15.7143 10.0173 15.5939 10.3079 15.3796 10.5223C15.1652 10.7366 14.8745 10.857 14.5714 10.857C14.2683 10.857 13.9776 10.7366 13.7633 10.5223C13.549 10.3079 13.4286 10.0173 13.4286 9.71415V7.42843C13.4286 7.12533 13.549 6.83464 13.7633 6.62031C13.9776 6.40598 14.2683 6.28558 14.5714 6.28558Z" stroke="#FFD0BF" stroke-linecap="round" stroke-linejoin="round"/>
</svg>
