<svg width="30" height="32" viewBox="0 0 30 32" fill="none" xmlns="http://www.w3.org/2000/svg">
<g id="logos:google-icon" clip-path="url(#clip0_179_4195)">
<path id="Vector" d="M29.9857 16.2898C29.9857 15.0198 29.8836 14.093 29.6627 13.1318H15.2988V18.8642H23.7301C23.5602 20.2888 22.6423 22.4342 20.6024 23.8758L20.5738 24.0677L25.1154 27.6201L25.43 27.6518C28.3198 24.9572 29.9857 20.9925 29.9857 16.2898Z" fill="#4285F4"/>
<path id="Vector_2" d="M15.2988 31.3937C19.4295 31.3937 22.8972 30.0206 25.43 27.6521L20.6024 23.8762C19.3105 24.7858 17.5766 25.4208 15.2988 25.4208C11.2532 25.4208 7.81945 22.7263 6.59543 19.002L6.41602 19.0173L1.69359 22.7074L1.63184 22.8807C4.14762 27.9266 9.31523 31.3937 15.2988 31.3937Z" fill="#34A853"/>
<path id="Vector_3" d="M6.59543 19.0016C6.27246 18.0405 6.08555 17.0106 6.08555 15.9466C6.08555 14.8824 6.27246 13.8527 6.57844 12.8915L6.56988 12.6868L1.78828 8.9375L1.63184 9.01263C0.594961 11.1066 0 13.4579 0 15.9466C0 18.4352 0.594961 20.7865 1.63184 22.8804L6.59543 19.0016Z" fill="#FBBC05"/>
<path id="Vector_4" d="M15.2988 6.47271C18.1716 6.47271 20.1094 7.7256 21.2143 8.77262L25.532 4.51616C22.8803 2.02752 19.4295 0.5 15.2988 0.5C9.31523 0.5 4.14762 3.96691 1.63184 9.01281L6.57844 12.8917C7.81945 9.16734 11.2532 6.47271 15.2988 6.47271Z" fill="#EB4335"/>
</g>
<defs>
<clipPath id="clip0_179_4195">
<rect width="30" height="31" fill="white" transform="translate(0 0.5)"/>
</clipPath>
</defs>
</svg>
