<svg width="25" height="22" viewBox="0 0 25 22" fill="none" xmlns="http://www.w3.org/2000/svg">
<path d="M12.2111 3.40967L12.6296 4.05026L13.0482 3.40967C14.1264 1.75963 15.9624 0.76572 18.0981 0.765625C19.6997 0.767638 21.2388 1.42732 22.3768 2.606C23.5155 3.78534 24.159 5.38793 24.1609 7.06306C24.1607 10.1619 22.2931 13.4791 18.4122 16.9186C16.6391 18.4834 14.7241 19.8666 12.6942 21.049C12.6733 21.06 12.6512 21.0653 12.6296 21.0653C12.608 21.0653 12.586 21.0601 12.565 21.049C10.5351 19.8666 8.62013 18.4834 6.84696 16.9185C2.96603 13.4789 1.0985 10.1616 1.09839 7.06277C1.10035 5.38775 1.74383 3.78527 2.88244 2.606C4.02047 1.42732 5.55961 0.767638 7.1612 0.765625C9.29684 0.76572 11.1329 1.75963 12.2111 3.40967Z" stroke="#FFD0BF"/>
</svg>
