<svg width="36" height="36" viewBox="0 0 36 36" fill="none" xmlns="http://www.w3.org/2000/svg">
<path d="M19.5429 3.00136C20.6375 2.99716 21.7321 3.00816 22.8264 3.03436L23.1174 3.04486C23.4534 3.05686 23.7849 3.07186 24.1854 3.08986C25.7814 3.16486 26.8704 3.41686 27.8259 3.78736C28.8159 4.16836 29.6499 4.68436 30.4839 5.51836C31.2464 6.26777 31.8366 7.17428 32.2134 8.17486C32.5839 9.13036 32.8359 10.2209 32.9109 11.8169C32.9289 12.2159 32.9439 12.5489 32.9559 12.8849L32.9649 13.1759C32.9915 14.2696 33.003 15.3638 32.9994 16.4579L33.0009 17.5769V19.5419C33.0046 20.6365 32.9931 21.7311 32.9664 22.8254L32.9574 23.1164C32.9454 23.4524 32.9304 23.7839 32.9124 24.1844C32.8374 25.7804 32.5824 26.8694 32.2134 27.8249C31.8378 28.8265 31.2475 29.7338 30.4839 30.4829C29.7338 31.2453 28.8268 31.8355 27.8259 32.2124C26.8704 32.5829 25.7814 32.8349 24.1854 32.9099C23.7849 32.9279 23.4534 32.9429 23.1174 32.9549L22.8264 32.9639C21.7321 32.9905 20.6375 33.002 19.5429 32.9984L18.4239 32.9999H16.4604C15.3658 33.0036 14.2712 32.9921 13.1769 32.9654L12.8859 32.9564C12.5298 32.9435 12.1738 32.9284 11.8179 32.9114C10.2219 32.8364 9.13286 32.5814 8.17587 32.2124C7.17489 31.8364 6.26822 31.2461 5.51937 30.4829C4.75593 29.7333 4.1652 28.8262 3.78837 27.8249C3.41787 26.8694 3.16587 25.7804 3.09087 24.1844C3.07416 23.8284 3.05916 23.4724 3.04587 23.1164L3.03837 22.8254C3.01071 21.7311 2.99821 20.6365 3.00087 19.5419V16.4579C2.99668 15.3638 3.00768 14.2697 3.03387 13.1759L3.04437 12.8849C3.05637 12.5489 3.07137 12.2159 3.08937 11.8169C3.16437 10.2194 3.41637 9.13186 3.78687 8.17486C4.16392 7.17379 4.75581 6.26752 5.52087 5.51986C6.26921 4.75599 7.17531 4.16472 8.17587 3.78736C9.13286 3.41686 10.2204 3.16486 11.8179 3.08986L12.8859 3.04486L13.1769 3.03736C14.2706 3.00972 15.3647 2.99722 16.4589 2.99986L19.5429 3.00136ZM18.0009 10.5014C17.0071 10.4873 16.0205 10.6709 15.0983 11.0415C14.1762 11.412 13.3368 11.9622 12.6291 12.6599C11.9214 13.3577 11.3595 14.1892 10.9759 15.106C10.5923 16.0228 10.3948 17.0068 10.3948 18.0006C10.3948 18.9944 10.5923 19.9784 10.9759 20.8952C11.3595 21.8121 11.9214 22.6435 12.6291 23.3413C13.3368 24.039 14.1762 24.5892 15.0983 24.9598C16.0205 25.3303 17.0071 25.5139 18.0009 25.4999C19.99 25.4999 21.8976 24.7097 23.3042 23.3032C24.7107 21.8966 25.5009 19.989 25.5009 17.9999C25.5009 16.0107 24.7107 14.1031 23.3042 12.6966C21.8976 11.29 19.99 10.5014 18.0009 10.5014ZM18.0009 13.5014C18.5986 13.4903 19.1926 13.5986 19.7481 13.8197C20.3035 14.0408 20.8094 14.3704 21.236 14.7892C21.6627 15.208 22.0016 15.7076 22.233 16.2589C22.4644 16.8101 22.5837 17.402 22.5838 17.9998C22.5839 18.5977 22.4648 19.1896 22.2336 19.7409C22.0024 20.2923 21.6636 20.792 21.2371 21.211C20.8106 21.6299 20.3048 21.9597 19.7495 22.181C19.1941 22.4023 18.6001 22.5107 18.0024 22.4999C16.8089 22.4999 15.6643 22.0258 14.8204 21.1818C13.9765 20.3379 13.5024 19.1933 13.5024 17.9999C13.5024 16.8064 13.9765 15.6618 14.8204 14.8179C15.6643 13.974 16.8089 13.4999 18.0024 13.4999L18.0009 13.5014ZM25.8759 8.25136C25.392 8.27073 24.9343 8.47658 24.5988 8.82581C24.2632 9.17505 24.0758 9.64056 24.0758 10.1249C24.0758 10.6092 24.2632 11.0747 24.5988 11.4239C24.9343 11.7731 25.392 11.979 25.8759 11.9984C26.3731 11.9984 26.8501 11.8008 27.2017 11.4492C27.5533 11.0976 27.7509 10.6206 27.7509 10.1234C27.7509 9.62608 27.5533 9.14916 27.2017 8.79753C26.8501 8.4459 26.3731 8.24836 25.8759 8.24836V8.25136Z" fill="#FFD0BF"/>
</svg>
