<svg width="17" height="12" viewBox="0 0 17 12" fill="none" xmlns="http://www.w3.org/2000/svg">
<path fill-rule="evenodd" clip-rule="evenodd" d="M2.5 0.5H14.5C15.0304 0.5 15.5391 0.710714 15.9142 1.08579C16.2893 1.46086 16.5 1.96957 16.5 2.5V9.5C16.5 10.0304 16.2893 10.5391 15.9142 10.9142C15.5391 11.2893 15.0304 11.5 14.5 11.5H2.5C1.96957 11.5 1.46086 11.2893 1.08579 10.9142C0.710714 10.5391 0.5 10.0304 0.5 9.5V2.5C0.5 1.96957 0.710714 1.46086 1.08579 1.08579C1.46086 0.710714 1.96957 0.5 2.5 0.5Z" stroke="#FFD0BF" stroke-linecap="round" stroke-linejoin="round"/>
<path fill-rule="evenodd" clip-rule="evenodd" d="M0 4H17V6H0V4Z" fill="#FFD0BF"/>
</svg>
