<svg width="41" height="39" viewBox="0 0 41 39" fill="none" xmlns="http://www.w3.org/2000/svg">
<g id="iconamoon:profile-thin">
<g id="Group">
<path id="Vector" d="M7.29639 29.25C7.29639 27.5261 7.99877 25.8728 9.24901 24.6538C10.4993 23.4348 12.1949 22.75 13.9631 22.75H27.2964C29.0645 22.75 30.7602 23.4348 32.0104 24.6538C33.2607 25.8728 33.9631 27.5261 33.9631 29.25C33.9631 30.112 33.6119 30.9386 32.9867 31.5481C32.3616 32.1576 31.5138 32.5 30.6297 32.5H10.6297C9.74566 32.5 8.89782 32.1576 8.2727 31.5481C7.64758 30.9386 7.29639 30.112 7.29639 29.25Z" stroke="#FFD0BF" stroke-linejoin="round"/>
<path id="Vector_2" d="M20.6296 17.3804C23.3911 17.3804 25.6296 14.0674 25.6296 11.375C25.6296 8.68261 23.3911 6.5 20.6296 6.5C17.8682 6.5 15.6296 8.68261 15.6296 11.375C15.6296 14.0674 17.8682 17.3804 20.6296 17.3804Z" stroke="#FFD0BF"/>
</g>
</g>
</svg>
