<svg width="682" height="301" viewBox="0 0 682 301" fill="none" xmlns="http://www.w3.org/2000/svg">
<g clip-path="url(#clip0_136_1524)">
<path d="M202.897 247.511C200.552 265.873 191.931 282.672 182.733 298.855C182.429 299.406 182.116 299.949 181.795 300.5H86.2C84.2666 299.998 82.3582 299.447 80.4577 298.855C69.6605 295.569 59.4671 290.557 50.2737 284.013C15.1042 258.686 1.57101 210.828 7.68367 167.945C11.4845 141.302 23.1828 114.1 45.9627 99.7511C57.9904 92.1613 73.4401 89.6944 87.2858 92.5149C87.6481 92.5806 88.0101 92.6629 88.38 92.7369C100.292 95.4176 110.905 102.078 116.944 112.809C127.803 132.092 121.337 155.98 115.998 177.442C110.675 198.904 107.787 224.593 123.237 240.422C118.136 225.415 123.171 207.514 135.355 197.367C144.561 189.711 157.378 186.841 169.068 189.218C170.187 189.456 171.29 189.728 172.376 190.056C175 190.825 177.53 191.884 179.919 193.214C198.142 203.386 205.521 226.813 202.897 247.511Z" fill="#FFD0BF"/>
<path d="M146.214 298.855C148.863 299.472 151.52 300.015 154.194 300.5H139.74C137.847 299.99 135.963 299.448 134.096 298.855C129.991 297.573 125.949 296.101 121.97 294.44C106.01 287.746 91.3084 277.698 80.1858 264.327C74.7461 257.849 70.3041 250.596 67.0065 242.807C63.4308 234.004 61.1583 224.727 60.2608 215.268C58.2451 195.862 60.3018 175.921 64.1436 156.86C68.1084 137.104 74.5083 117.916 83.197 99.7348C84.2418 97.5557 85.3222 95.3904 86.4383 93.2386C86.515 93.0615 86.6313 92.9042 86.7781 92.7788C86.9249 92.6534 87.0984 92.5632 87.2855 92.515C87.6652 92.4414 88.0587 92.5212 88.3797 92.737C88.765 92.9579 89.0506 93.3183 89.1777 93.7438C89.3048 94.1692 89.2636 94.6271 89.0626 95.023C80.1041 112.485 73.3133 130.976 68.8411 150.084C64.4646 168.726 61.9801 188.231 62.8273 207.399C63.6335 225.309 68.3149 242.922 78.9354 257.568C88.6347 270.938 102.028 281.48 116.844 288.659C126.222 293.144 136.074 296.564 146.214 298.855Z" fill="#382C44"/>
<path d="M177.937 300.5H173.676C173.199 299.957 172.738 299.406 172.286 298.855C162.579 287.067 156.003 273.022 153.166 258.02C149.721 239.298 152.401 219.965 160.809 202.884C163.155 198.095 165.919 193.522 169.069 189.218C170.187 189.456 171.29 189.728 172.376 190.057C164.09 201.029 158.517 213.804 156.111 227.34C153.965 240.023 154.679 253.025 158.2 265.397C161.721 277.77 167.961 289.2 176.465 298.855C176.942 299.406 177.435 299.957 177.937 300.5Z" fill="#382C44"/>
<path d="M561.831 286.515C562.45 291.361 564.725 295.795 567.153 300.066C567.233 300.211 567.316 300.355 567.4 300.5H592.63C593.14 300.368 593.643 300.222 594.145 300.066C596.995 299.199 599.685 297.876 602.111 296.149C611.393 289.465 614.965 276.834 613.351 265.516C612.348 258.485 609.261 251.306 603.249 247.519C599.984 245.531 596.089 244.849 592.343 245.609C592.247 245.626 592.152 245.648 592.054 245.668C590.495 245.969 589.017 246.597 587.718 247.51C586.418 248.423 585.327 249.6 584.516 250.965C581.65 256.054 583.356 262.359 584.765 268.023C586.17 273.687 586.932 280.467 582.855 284.644C583.452 282.897 583.574 281.023 583.206 279.213C582.839 277.404 581.996 275.725 580.765 274.348C579.533 272.972 577.957 271.949 576.198 271.383C574.44 270.818 572.562 270.731 570.759 271.131C570.464 271.194 570.173 271.265 569.886 271.352C569.194 271.555 568.526 271.834 567.895 272.185C563.086 274.87 561.138 281.053 561.831 286.515Z" fill="#FFD0BF"/>
<path d="M576.791 300.066C576.092 300.229 575.39 300.372 574.685 300.5H578.499C578.999 300.366 579.496 300.222 579.989 300.066C581.072 299.728 582.139 299.339 583.189 298.901C587.448 297.172 591.23 294.447 594.217 290.953C595.652 289.244 596.825 287.33 597.695 285.274C598.639 282.951 599.238 280.502 599.475 278.006C599.908 272.845 599.563 267.649 598.45 262.591C597.404 257.377 595.715 252.313 593.422 247.515C593.146 246.939 592.861 246.368 592.566 245.8C592.546 245.753 592.516 245.712 592.477 245.679C592.438 245.646 592.392 245.622 592.343 245.609C592.243 245.59 592.139 245.611 592.054 245.668C591.952 245.726 591.877 245.821 591.844 245.933C591.81 246.046 591.821 246.167 591.874 246.271C594.238 250.88 596.03 255.76 597.211 260.803C598.426 265.749 598.96 270.838 598.798 275.929C598.711 280.664 597.233 285.269 594.547 289.17C591.935 292.683 588.499 295.501 584.542 297.375C582.067 298.559 579.467 299.461 576.791 300.066Z" fill="#382C44"/>
<path d="M568.418 300.5H569.543C569.669 300.357 569.79 300.211 569.91 300.066C572.471 296.955 574.207 293.248 574.956 289.288C575.865 284.347 575.157 279.245 572.938 274.737C572.319 273.473 571.59 272.266 570.759 271.13C570.463 271.193 570.172 271.265 569.886 271.352C572.072 274.248 573.543 277.619 574.178 281.191C574.745 284.539 574.556 287.97 573.627 291.236C572.698 294.501 571.051 297.518 568.807 300.066C568.681 300.211 568.55 300.357 568.418 300.5Z" fill="#382C44"/>
<path d="M334.427 175.246H255.465L254.628 150.979C254.592 149.927 254.784 148.88 255.192 147.909C255.599 146.939 256.212 146.068 256.989 145.357C257.765 144.646 258.687 144.112 259.69 143.79C260.692 143.469 261.753 143.369 262.798 143.497L308.749 149.121H308.754C315.566 149.14 322.094 151.856 326.906 156.676C331.718 161.496 334.422 168.026 334.427 174.835V175.246Z" fill="#FFD0BF"/>
<path d="M299.234 89.168H244.162C243.429 89.1678 242.704 89.3118 242.027 89.5919C241.351 89.872 240.736 90.2826 240.218 90.8002C239.7 91.3179 239.289 91.9325 239.009 92.6089C238.729 93.2853 238.585 94.0102 238.585 94.7423V149.789C238.585 150.521 238.729 151.246 239.009 151.922C239.289 152.599 239.7 153.213 240.218 153.731C240.736 154.249 241.351 154.659 242.027 154.939C242.704 155.219 243.429 155.364 244.162 155.363H299.234C299.966 155.364 300.691 155.22 301.368 154.939C302.045 154.659 302.66 154.249 303.178 153.731C303.695 153.213 304.106 152.599 304.386 151.922C304.667 151.246 304.811 150.521 304.811 149.789V94.7423C304.811 94.0102 304.667 93.2853 304.386 92.6089C304.106 91.9325 303.695 91.3179 303.178 90.8002C302.66 90.2825 302.045 89.872 301.368 89.5919C300.691 89.3118 299.966 89.1678 299.234 89.168Z" fill="#252525"/>
<path d="M286.83 130.33L260.828 135.391C259.286 135.689 257.688 135.364 256.385 134.487C255.083 133.609 254.181 132.251 253.879 130.71L251.881 120.45C251.582 118.909 251.907 117.312 252.786 116.01C253.664 114.707 255.022 113.807 256.564 113.505L282.566 108.444C284.108 108.145 285.706 108.47 287.009 109.348C288.312 110.226 289.213 111.584 289.515 113.125L291.514 123.384C291.812 124.926 291.487 126.523 290.609 127.825C289.731 129.127 288.372 130.028 286.83 130.33Z" fill="#FFD0BF"/>
<path d="M281.628 118.21L261.785 122.072C261.422 122.143 261.046 122.067 260.739 121.86C260.432 121.653 260.22 121.334 260.15 120.971C260.079 120.608 260.155 120.232 260.362 119.925C260.569 119.619 260.889 119.407 261.252 119.336L281.095 115.474C281.458 115.403 281.834 115.48 282.141 115.686C282.448 115.893 282.66 116.213 282.73 116.575C282.801 116.938 282.725 117.314 282.518 117.621C282.311 117.927 281.991 118.139 281.628 118.21Z" fill="#252525"/>
<path d="M277.771 123.929L267.507 125.927C267.144 125.998 266.768 125.922 266.462 125.715C266.155 125.508 265.943 125.189 265.872 124.826C265.802 124.463 265.878 124.087 266.085 123.781C266.291 123.474 266.611 123.262 266.974 123.192L277.238 121.194C277.418 121.159 277.603 121.159 277.782 121.196C277.962 121.232 278.132 121.304 278.284 121.406C278.436 121.508 278.566 121.639 278.667 121.792C278.768 121.945 278.838 122.116 278.873 122.295C278.908 122.475 278.908 122.66 278.871 122.839C278.835 123.018 278.763 123.189 278.661 123.34C278.559 123.492 278.427 123.622 278.275 123.723C278.122 123.824 277.951 123.894 277.771 123.929Z" fill="#252525"/>
<path d="M304.811 94.7423V102.059H238.585V94.7423C238.585 94.0102 238.729 93.2853 239.009 92.6089C239.289 91.9325 239.7 91.3179 240.218 90.8002C240.736 90.2826 241.351 89.872 242.027 89.5919C242.704 89.3118 243.429 89.1678 244.162 89.168H299.234C299.966 89.1678 300.691 89.3118 301.368 89.5919C302.045 89.872 302.66 90.2826 303.178 90.8002C303.695 91.3179 304.106 91.9325 304.386 92.6089C304.667 93.2853 304.811 94.0102 304.811 94.7423Z" fill="#FFD0BF"/>
<path d="M437.056 104.35C436.674 103.116 436.026 101.981 435.157 101.025C434.288 100.069 433.221 99.3151 432.029 98.8161C430.837 98.3171 429.551 98.0854 428.26 98.1372C426.969 98.189 425.705 98.5231 424.557 99.116L348.791 71.9448L345.454 90.8638L420.979 111.623C422.103 113.484 423.871 114.869 425.949 115.514C428.026 116.16 430.268 116.021 432.25 115.124C434.231 114.228 435.815 112.636 436.701 110.65C437.587 108.664 437.713 106.422 437.056 104.35Z" fill="#FFB8B8"/>
<path opacity="0.2" d="M437.056 104.35C436.674 103.116 436.026 101.981 435.157 101.025C434.288 100.069 433.221 99.3151 432.029 98.8161C430.837 98.3171 429.551 98.0854 428.26 98.1372C426.969 98.189 425.705 98.5231 424.557 99.116L348.791 71.9448L345.454 90.8638L420.979 111.623C422.103 113.484 423.871 114.869 425.949 115.514C428.026 116.16 430.268 116.021 432.25 115.124C434.231 114.228 435.815 112.636 436.701 110.65C437.587 108.664 437.713 106.422 437.056 104.35Z" fill="#1F1F1F"/>
<path d="M362.239 75.3924L355.085 94.0754C354.881 94.6069 354.565 95.0884 354.159 95.487C353.752 95.8856 353.264 96.1919 352.729 96.3851C352.193 96.5783 351.622 96.6538 351.055 96.6066C350.487 96.5593 349.936 96.3904 349.44 96.1112L332.052 86.3289C329.337 85.2722 327.152 83.1827 325.976 80.5184C324.8 77.8541 324.729 74.8324 325.779 72.1159C326.828 69.3993 328.913 67.2096 331.575 66.0266C334.237 64.8437 337.26 64.7641 339.98 65.8054L359.397 70.1098C359.953 70.2333 360.476 70.475 360.93 70.8185C361.384 71.1621 361.759 71.5994 362.028 72.1008C362.298 72.6021 362.457 73.1556 362.493 73.7236C362.529 74.2917 362.443 74.8608 362.239 75.3924Z" fill="#FFD0BF"/>
<path d="M443.02 121.649L415.872 133.983L419.436 147.396C426.319 173.297 428.146 200.28 424.817 226.872L444.666 231.015L461.119 189.078L455.361 141.384L443.02 121.649Z" fill="#FFD0BF"/>
<path d="M496.288 183.733C478.451 183.733 463.914 196.694 463.209 212.925H529.367C528.662 196.694 514.125 183.733 496.288 183.733Z" fill="#1F1F1F"/>
<path d="M482.403 186.53C481.475 113.264 439.729 120.005 439.729 120.005C439.729 120.005 440.51 142.81 440.885 143.519C467.487 193.827 423.584 252.806 367.7 241.956C366.646 241.751 365.634 241.544 364.663 241.333C357.582 239.856 351.33 235.737 347.179 229.816C343.028 223.895 341.289 216.616 342.317 209.459C347.822 165.272 320.441 166.054 320.441 166.054H280.404L259.612 147.35C258.878 146.689 257.994 146.219 257.036 145.979C256.078 145.74 255.076 145.738 254.118 145.975C253.159 146.212 252.273 146.68 251.538 147.339C250.802 147.997 250.239 148.825 249.898 149.751L247.223 157.008C247.223 157.008 207.734 161.12 211.025 199.768H223.233C223.204 200.866 223.248 201.965 223.365 203.057L314.477 202.317C319.818 202.273 324.532 206.599 324.554 211.937C324.56 213.237 324.303 214.525 323.799 215.723C323.295 216.921 322.555 218.005 321.622 218.911C320.69 219.816 319.584 220.524 318.371 220.993C317.158 221.461 315.863 221.681 314.563 221.637L299.874 221.148C295.349 241.294 306.456 254.862 318.693 263.394C330.215 271.31 343.886 275.507 357.867 275.42H397.773C449.602 275.42 458.651 231.838 458.651 231.838C485.799 220.326 482.403 186.53 482.403 186.53Z" fill="#1F1F1F"/>
<path d="M493.821 299.266C519.378 299.266 540.096 278.558 540.096 253.012C540.096 227.466 519.378 206.757 493.821 206.757C468.263 206.757 447.545 227.466 447.545 253.012C447.545 278.558 468.263 299.266 493.821 299.266Z" fill="#1F1F1F"/>
<path d="M493.821 264.349C500.085 264.349 505.163 259.273 505.163 253.012C505.163 246.751 500.085 241.675 493.821 241.675C487.557 241.675 482.479 246.751 482.479 253.012C482.479 259.273 487.557 264.349 493.821 264.349Z" fill="#FFD0BF"/>
<path d="M260.18 299.267C289.599 299.267 313.448 275.428 313.448 246.022C313.448 216.617 289.599 192.778 260.18 192.778C230.76 192.778 206.911 216.617 206.911 246.022C206.911 275.428 230.76 299.267 260.18 299.267Z" fill="#1F1F1F"/>
<path d="M260.18 259.072C267.391 259.072 273.236 253.23 273.236 246.022C273.236 238.815 267.391 232.972 260.18 232.972C252.969 232.972 247.124 238.815 247.124 246.022C247.124 253.23 252.969 259.072 260.18 259.072Z" fill="#FFD0BF"/>
<path d="M415.949 137.628L406.181 111.109C405.672 109.727 405.44 108.258 405.499 106.787C405.558 105.315 405.906 103.869 406.524 102.532C407.142 101.195 408.017 99.9929 409.1 98.9939C410.182 97.9949 411.451 97.2189 412.834 96.7101L440.838 86.4056C443.271 85.5101 445.857 85.1023 448.447 85.2056C451.038 85.3089 453.582 85.9212 455.936 87.0076C458.29 88.0939 460.407 89.633 462.166 91.5371C463.924 93.4411 465.291 95.6727 466.186 98.1045C466.994 100.287 467.407 102.596 467.405 104.923C467.394 107.878 466.725 110.794 465.446 113.458C464.167 116.122 462.31 118.468 460.011 120.325C458.35 121.657 456.482 122.71 454.482 123.441L415.949 137.628Z" fill="#1F1F1F"/>
<path d="M466.993 104.924C466.991 107.818 466.339 110.676 465.087 113.286C463.834 115.896 462.011 118.192 459.753 120.005C456.29 119.091 453.066 117.435 450.307 115.151C447.549 112.866 445.321 110.009 443.778 106.777C442.236 103.545 441.417 100.016 441.377 96.4358C441.337 92.8553 442.077 89.309 443.547 86.0435C446.369 85.4301 449.292 85.4563 452.102 86.1199C454.913 86.7836 457.539 88.068 459.787 89.8788C462.036 91.6896 463.851 93.9808 465.098 96.5842C466.345 99.1876 466.992 102.037 466.993 104.924Z" fill="#FFD0BF"/>
<path d="M218.017 205.113C224.378 205.113 229.535 198.854 229.535 191.133C229.535 183.413 224.378 177.154 218.017 177.154C211.657 177.154 206.5 183.413 206.5 191.133C206.5 198.854 211.657 205.113 218.017 205.113Z" fill="#FFD0BF"/>
<path d="M370.263 240.616H380.349L385.148 214.47L370.262 214.471L370.263 240.616Z" fill="#FFB8B8"/>
<path d="M367.69 237.325L387.553 237.324H387.554C389.216 237.324 390.862 237.651 392.398 238.287C393.934 238.923 395.329 239.855 396.504 241.03C397.68 242.205 398.612 243.599 399.248 245.135C399.885 246.67 400.212 248.315 400.212 249.976V250.388L367.691 250.389L367.69 237.325Z" fill="#1F1F1F"/>
<path d="M381.97 229.885C381.853 229.885 381.735 229.879 381.616 229.868L367.658 228.852C367.094 228.8 366.549 228.619 366.066 228.323C365.582 228.027 365.173 227.623 364.871 227.144C364.568 226.665 364.379 226.123 364.319 225.56C364.259 224.996 364.329 224.427 364.524 223.894L383.205 181.945C383.338 181.571 383.393 181.173 383.365 180.777C383.337 180.381 383.227 179.995 383.043 179.644C382.859 179.288 382.602 178.975 382.289 178.725C381.975 178.476 381.612 178.296 381.224 178.196C372.44 175.901 349.903 169.79 330.394 162.64C322.035 159.577 316.771 155.149 314.747 149.482C312.079 142.009 316.026 135.195 316.196 134.909L316.328 134.685L334.686 136.353L354.587 138.045L398.2 161.421C401.855 163.397 404.631 166.675 405.975 170.605C407.32 174.534 407.134 178.825 405.455 182.624L385.348 227.692C385.057 228.345 384.583 228.899 383.984 229.288C383.384 229.678 382.685 229.885 381.97 229.885Z" fill="#1F1F1F"/>
<path d="M337.879 53.3585C349.038 53.3585 358.084 44.3162 358.084 33.1619C358.084 22.0077 349.038 12.9653 337.879 12.9653C326.719 12.9653 317.673 22.0077 317.673 33.1619C317.673 44.3162 326.719 53.3585 337.879 53.3585Z" fill="#FFB8B8"/>
<path d="M364.505 243.083H374.591L379.389 216.937L364.503 216.937L364.505 243.083Z" fill="#FFB8B8"/>
<path d="M361.932 239.792L381.794 239.792H381.795C383.457 239.791 385.103 240.119 386.639 240.755C388.175 241.39 389.57 242.322 390.746 243.497C391.921 244.672 392.854 246.067 393.49 247.602C394.126 249.137 394.453 250.782 394.453 252.444V252.855L361.932 252.856L361.932 239.792Z" fill="#1F1F1F"/>
<path d="M376.211 232.352C376.094 232.352 375.976 232.346 375.857 232.335L361.899 231.319C361.335 231.267 360.79 231.086 360.307 230.789C359.823 230.493 359.415 230.09 359.112 229.611C358.809 229.132 358.62 228.59 358.56 228.027C358.5 227.463 358.571 226.893 358.766 226.361L377.446 184.412C377.579 184.038 377.634 183.64 377.606 183.244C377.578 182.848 377.469 182.462 377.284 182.11C377.1 181.754 376.843 181.442 376.53 181.192C376.216 180.943 375.853 180.762 375.465 180.663C366.681 178.368 344.144 172.257 324.635 165.107C316.277 162.043 311.012 157.616 308.989 151.948C306.32 144.476 310.268 137.662 310.437 137.376L310.569 137.152L328.927 138.82L348.829 140.512L392.442 163.888C396.096 165.863 398.872 169.142 400.216 173.071C401.561 177.001 401.375 181.292 399.696 185.09L379.589 230.159C379.299 230.812 378.825 231.366 378.225 231.755C377.626 232.144 376.926 232.352 376.211 232.352Z" fill="#1F1F1F"/>
<path d="M344.109 64.8109L322.72 57.4102C322.72 57.4102 309.292 67.7218 315.743 93.3025C319.11 106.503 318.129 120.437 312.946 133.036C312.321 134.595 311.602 136.114 310.791 137.585C310.791 137.585 334.649 166.365 356.861 144.985L348.223 103.459C348.223 103.459 361.797 75.912 344.109 64.8109Z" fill="#FFD0BF"/>
<path d="M340.387 54.0455C337.511 49.743 335.241 43.777 338.407 39.6833C341.533 35.6423 347.697 36.2377 352.484 34.4496C359.151 31.9591 363.018 24.1302 361.812 17.119C360.606 10.1078 354.975 4.29567 348.267 1.91755C341.559 -0.460575 333.995 0.312847 327.426 3.0514C319.34 6.4226 312.403 12.9439 309.494 21.2048C306.586 29.4656 308.14 39.3843 314.175 45.7338C320.644 52.5411 330.797 54.3552 340.19 54.2452" fill="#1F1F1F"/>
<path d="M321.591 17.3442C317.968 20.2929 312.439 18.9832 308.549 16.3954C304.659 13.8076 301.503 10.1227 297.294 8.09372C289.874 4.51674 280.903 6.89461 273.682 10.8567C266.46 14.8189 260.059 20.2927 252.431 23.4019C244.803 26.5112 235.069 26.6649 229.293 20.7939C227.872 24.9102 227.756 29.3646 228.96 33.5494C230.165 37.7341 232.633 41.4454 236.026 44.1768C239.418 46.9083 243.572 48.5268 247.919 48.8117C252.266 49.0965 256.596 48.0338 260.316 45.7684C268.674 40.6797 273.291 30.0101 282.665 27.2014C287.853 25.6472 293.423 26.899 298.666 28.2548C303.908 29.6106 309.375 31.0756 314.666 29.9214C319.957 28.7672 324.906 24.0147 324.233 18.6437L321.591 17.3442Z" fill="#1F1F1F"/>
<path d="M436.051 103.527C435.52 102.35 434.736 101.304 433.756 100.462C432.776 99.6208 431.624 99.0041 430.379 98.6559C429.135 98.3077 427.83 98.2364 426.555 98.447C425.28 98.6576 424.067 99.1451 423.001 99.875L344.461 82.2554L343.484 101.441L420.994 112.728C422.34 114.436 424.266 115.592 426.407 115.976C428.548 116.361 430.755 115.946 432.611 114.812C434.467 113.678 435.843 111.903 436.477 109.823C437.111 107.743 436.959 105.503 436.051 103.527Z" fill="#FFB8B8"/>
<path d="M358.232 84.0179L353.438 103.44C353.301 103.993 353.047 104.51 352.693 104.955C352.339 105.401 351.893 105.765 351.385 106.023C350.877 106.281 350.32 106.426 349.751 106.449C349.182 106.472 348.615 106.373 348.088 106.157L329.625 98.5937C326.799 97.8816 324.37 96.0779 322.873 93.5783C321.376 91.0788 320.931 88.0875 321.638 85.261C322.344 82.4344 324.144 80.0034 326.641 78.5014C329.139 76.9994 332.13 76.549 334.96 77.2491L354.759 79.1261C355.326 79.18 355.875 79.3554 356.368 79.6403C356.861 79.9253 357.287 80.3131 357.616 80.7773C357.946 81.2415 358.171 81.7713 358.277 82.3305C358.384 82.8897 358.368 83.4653 358.232 84.0179Z" fill="#FFD0BF"/>
<path d="M426.977 118.771C430.158 118.771 432.736 116.194 432.736 113.015C432.736 109.836 430.158 107.259 426.977 107.259C423.797 107.259 421.219 109.836 421.219 113.015C421.219 116.194 423.797 118.771 426.977 118.771Z" fill="#FFD0BF"/>
<path d="M682 299.678C681.999 299.896 681.912 300.104 681.758 300.259C681.604 300.413 681.395 300.499 681.177 300.5H0.822678C0.60449 300.5 0.395238 300.413 0.240956 300.259C0.0866741 300.105 0 299.896 0 299.678C0 299.46 0.0866741 299.251 0.240956 299.096C0.395238 298.942 0.60449 298.855 0.822678 298.855H681.177C681.395 298.856 681.604 298.943 681.758 299.097C681.912 299.251 681.999 299.46 682 299.678Z" fill="#1F1F1F"/>
</g>
<defs>
<clipPath id="clip0_136_1524">
<rect width="682" height="300" fill="white" transform="translate(0 0.5)"/>
</clipPath>
</defs>
</svg>
