<svg width="214" height="232" viewBox="0 0 214 232" fill="none" xmlns="http://www.w3.org/2000/svg">
<g clip-path="url(#clip0_128_547)">
<path d="M175.184 109.308C181.808 113.563 188.011 119.259 193.822 126.286V137.03C190.987 136.068 180.163 132.082 175.89 125.779C170.951 118.493 170.072 107.435 174.186 104.666C175.258 103.946 176.559 103.857 177.987 104.251C182.49 107.478 186.796 111.391 190.91 115.95C192.368 118.182 193.27 121.024 193.822 123.895V124.031C188.5 116.65 182.244 111.861 175.184 109.308Z" fill="#382C44"/>
<path d="M174.852 43.3199C181.475 47.5743 187.678 53.2712 193.489 60.2978V62.7516C192.934 62.5626 192.075 62.2608 191.017 61.8463C186.264 56.2323 180.846 52.4521 174.852 50.2834C179.045 52.976 183.072 56.2489 186.936 60.0723C182.849 58.1125 178.07 55.2077 175.557 51.5004C175.291 51.1091 175.038 50.7145 174.798 50.3166C170.572 43.3265 170.292 35.6599 174.186 33.0403C178.3 30.2714 185.512 34.1942 190.451 41.4762C193.306 45.6908 194.108 52.2299 194.271 56.9884C194.009 57.3333 193.749 57.6848 193.489 58.0429C188.168 50.6615 181.911 45.8732 174.852 43.3199Z" fill="#382C44"/>
<path d="M212.553 82.5169V82.5202C212.081 83.8234 211.488 85.1398 210.783 86.4364C209.734 88.3663 208.123 90.1569 206.3 91.7586C204.346 93.4763 202.143 94.9751 200.116 96.1921C197.287 97.8932 194.801 99.0471 193.822 99.4848V98.4403C199.444 91.7751 205.421 86.3436 211.794 82.2516C205.025 84.6988 198.998 89.2086 193.822 96.0826V91.4767C199.444 84.8116 205.421 79.38 211.794 75.288C205.025 77.7352 198.998 82.245 193.822 89.119V84.5131C199.37 77.9375 205.261 72.5623 211.541 68.4902C214.484 70.8479 214.74 76.5348 212.553 82.5169Z" fill="#382C44"/>
<path d="M47.8207 129.068C74.2313 129.068 95.6413 107.737 95.6413 81.4226C95.6413 55.1086 74.2313 33.7769 47.8207 33.7769C21.41 33.7769 0 55.1086 0 81.4226C0 107.737 21.41 129.068 47.8207 129.068Z" fill="#FFEFE9"/>
<path d="M197.648 157.812C201.671 161.188 203.183 165.992 201.026 168.542C198.869 171.092 193.861 170.422 189.838 167.044C188.212 165.717 186.929 164.021 186.096 162.099L169.236 147.581L176.242 139.843L192.12 154.976C194.164 155.468 196.059 156.44 197.648 157.812Z" fill="#FBFBFB"/>
<path d="M184.034 147.071L163.422 120.7L143.9 85.1016L143.394 134.474L172.657 158.42L184.034 147.071Z" fill="#382C44"/>
<path d="M94.3722 74.4853L99.094 53.0952L114.876 53.8516L118.927 69.3689L94.3722 74.4853Z" fill="#FBFBFB"/>
<path opacity="0.1" d="M94.3722 74.4853L99.094 53.0952L114.876 53.8516L118.927 69.3689L94.3722 74.4853Z" fill="#FFD0BF"/>
<path d="M106.595 58.8347C116.353 58.8347 124.263 50.9531 124.263 41.2306C124.263 31.5081 116.353 23.6265 106.595 23.6265C96.8363 23.6265 88.9258 31.5081 88.9258 41.2306C88.9258 50.9531 96.8363 58.8347 106.595 58.8347Z" fill="#FBFBFB"/>
<path d="M98.6912 48.0288C98.6912 48.0288 96.9087 48.0116 93.2011 47.3246C89.4935 46.6377 95.9308 55.2697 95.9308 55.2697C78.4832 48.0109 84.0664 29.5993 84.0664 29.5993C66.3591 26.2252 73.777 10.5414 73.777 10.5414C73.777 10.5414 79.6139 -0.681463 97.5572 0.032693C115.5 0.746849 107.024 18.3792 107.024 18.3792C118.714 18.4012 120.029 28.8985 120.029 28.8985C120.029 28.8985 115.815 29.4227 108.156 31.3594C100.497 33.2961 98.6912 48.0288 98.6912 48.0288Z" fill="#382C44"/>
<path d="M97.9907 67.7485L97.1927 66.2002C97.1927 66.2002 82.9943 67.8399 80.6646 70.0045C78.3348 72.169 73.0098 81.7854 73.0098 81.7854L84.6584 91.7334L97.9907 67.7485Z" fill="#FFB6B6"/>
<path d="M115.61 67.3727C115.61 67.3727 126.26 64.5424 132.251 70.5112C138.242 76.48 145.231 87.4228 145.231 87.4228L144.898 96.0444L128.257 88.052L115.61 67.3727Z" fill="#FFB6B6"/>
<path d="M118.325 66.2002C118.325 66.2002 132.251 61.2262 141.237 71.8374C150.223 82.4486 152.886 115.94 152.886 115.94C152.886 115.94 173.188 177.949 168.195 178.612C163.203 179.276 132.737 181.109 132.737 181.109L122.267 113.619L117.607 66.2002L118.325 66.2002Z" fill="#382C44"/>
<path d="M86.3224 125.888L82.9943 137.826L128.257 141.142C128.257 141.142 126.593 131.162 128.257 127.531L86.3224 125.888Z" fill="#FBFBFB"/>
<path d="M117.607 66.2002H97.1927L80.6646 88.0858L84.3255 132.852C84.3255 132.852 92.646 130.531 104.295 130.531H129.256C129.256 130.531 125.595 118.925 130.254 114.282C134.914 109.64 131.586 88.0858 131.586 88.0858L117.607 66.2002Z" fill="#382C44"/>
<path d="M81.3301 134.178L62.6924 201.493C62.6924 201.493 90.1365 212.48 106.701 209.308C123.265 206.135 145.897 205.141 145.897 205.141L129.921 136.831L81.3301 134.178Z" fill="#382C44"/>
<path d="M124.429 158.807C128.451 162.183 129.963 166.987 127.806 169.537C125.649 172.087 120.641 171.417 116.618 168.039C114.993 166.712 113.71 165.016 112.877 163.094L96.0161 148.576L103.023 140.838L118.9 155.971C120.944 156.463 122.84 157.435 124.429 158.807Z" fill="#FBFBFB"/>
<path d="M114.142 147.071L93.5305 120.7L74.0082 85.1016L73.502 134.474L102.765 158.42L114.142 147.071Z" fill="#382C44"/>
<path d="M98.5843 66.2002C98.5843 66.2002 84.6584 61.2262 75.6723 71.8374C66.6863 82.4486 64.0237 115.94 64.0237 115.94C64.0237 115.94 43.7219 177.949 48.7142 178.612C53.7064 179.276 84.1724 181.109 84.1724 181.109L94.6429 113.619L99.3023 66.2002L98.5843 66.2002Z" fill="#382C44"/>
<path d="M194.155 53.5991H193.489V168.996H194.155V53.5991Z" fill="#3F3D56"/>
<path d="M9.10893 171.98C15.732 176.235 21.9357 181.932 27.7467 188.958V199.702C24.9111 198.741 14.0879 194.755 9.8145 188.451C4.87551 181.166 3.99687 170.107 8.11048 167.338C9.18214 166.618 10.4835 166.529 11.9112 166.924C16.4142 170.15 20.7209 174.063 24.8345 178.622C26.2923 180.854 27.1942 183.696 27.7467 186.568V186.703C22.4249 179.322 16.168 174.534 9.10893 171.98Z" fill="#382C44"/>
<path d="M8.77608 105.992C15.3991 110.247 21.6028 115.944 27.4138 122.97V125.424C26.858 125.235 25.9993 124.933 24.941 124.519C20.1884 118.905 14.7701 115.124 8.77608 112.956C12.9696 115.648 16.9966 118.921 20.8607 122.745C16.7737 120.785 11.9944 117.88 9.48165 114.173C9.2154 113.781 8.96245 113.387 8.72283 112.989C4.49606 105.999 4.21648 98.3322 8.11044 95.7126C12.2241 92.9437 19.4362 96.8666 24.3752 104.149C27.2308 108.363 28.0329 114.902 28.1959 119.661C27.933 120.006 27.6734 120.357 27.4138 120.715C22.0921 113.334 15.8351 108.546 8.77608 105.992Z" fill="#382C44"/>
<path d="M46.4776 145.189V145.192C46.005 146.495 45.4126 147.812 44.707 149.108C43.6587 151.038 42.0478 152.829 40.224 154.43C38.2704 156.148 36.0671 157.647 34.0402 158.864C31.2113 160.565 28.7252 161.719 27.7467 162.157V161.112C33.368 154.447 39.3454 149.015 45.7188 144.923C38.9493 147.371 32.922 151.88 27.7467 158.755V154.149C33.368 147.483 39.3454 142.052 45.7188 137.96C38.9493 140.407 32.922 144.917 27.7467 151.791V147.185C33.2947 140.609 39.1856 135.234 45.4659 131.162C48.408 133.52 48.6642 139.207 46.4776 145.189Z" fill="#382C44"/>
<path d="M28.0795 116.271H27.4138V231.668H28.0795V116.271Z" fill="#3F3D56"/>
</g>
<defs>
<clipPath id="clip0_128_547">
<rect width="214" height="232" fill="white"/>
</clipPath>
</defs>
</svg>
