<svg width="353" height="266" viewBox="0 0 353 266" fill="none" xmlns="http://www.w3.org/2000/svg">
<g clip-path="url(#clip0_128_572)">
<path d="M165.886 223.301C165.886 223.301 170.378 215.951 176.146 220.297C181.915 224.643 192.597 231.975 192.597 231.975C192.597 231.975 194.785 236.665 189.122 234.904C183.459 233.142 164.973 230.307 164.973 230.307L165.886 223.301Z" fill="#F3F3F3"/>
<path d="M40.3287 176.624C41.7605 165.144 48.8954 153.833 59.875 150.097C55.545 161.913 55.5459 174.875 59.8777 186.691C61.5648 191.241 63.9165 196.127 62.3295 200.714C61.3421 203.567 58.9266 205.751 56.2265 207.116C53.5262 208.481 50.5295 209.132 47.5703 209.77L46.9879 210.25C42.2902 199.672 38.897 188.103 40.3287 176.624Z" fill="#382C44"/>
<path d="M59.984 150.314C53.59 157.458 49.6159 166.429 48.6262 175.953C48.3767 178 48.4522 180.073 48.85 182.096C49.3014 184.054 50.2705 185.856 51.6566 187.315C52.9215 188.7 54.3764 189.972 55.2815 191.64C55.732 192.501 55.995 193.447 56.0532 194.417C56.1114 195.386 55.9634 196.356 55.619 197.265C54.8199 199.55 53.2449 201.413 51.6413 203.181C49.8607 205.144 47.98 207.156 47.2231 209.759C47.1314 210.074 46.646 209.914 46.7376 209.599C48.0544 205.07 52.4631 202.498 54.5655 198.419C55.5466 196.516 55.9584 194.306 55.0386 192.297C54.2344 190.54 52.7353 189.228 51.4423 187.836C50.0693 186.433 49.0616 184.716 48.5075 182.835C48.0076 180.838 47.8521 178.772 48.0476 176.723C48.4141 172.105 49.5065 167.572 51.2849 163.292C53.2874 158.396 56.1151 153.877 59.6456 149.932C59.8643 149.688 60.2012 150.072 59.984 150.314Z" fill="white"/>
<path d="M48.7639 172.867C47.1839 172.485 45.7917 171.555 44.836 170.243C43.8802 168.932 43.4231 167.324 43.5463 165.708C43.5723 165.381 44.0832 165.406 44.0571 165.733C43.9396 167.238 44.3655 168.736 45.258 169.955C46.1506 171.175 47.4508 172.036 48.9242 172.383C49.2443 172.459 49.0822 172.943 48.7639 172.867Z" fill="white"/>
<path d="M50.9224 186.696C53.7761 184.997 55.8827 182.288 56.8221 179.109C56.915 178.794 57.4004 178.955 57.3077 179.269C56.3238 182.576 54.1259 185.39 51.1524 187.152C50.8689 187.32 50.6404 186.863 50.9224 186.696Z" fill="white"/>
<path d="M53.7618 158.879C54.3422 159.154 54.982 159.281 55.6238 159.248C56.2655 159.216 56.8892 159.025 57.4387 158.693C57.7199 158.521 57.9481 158.978 57.6686 159.148C57.0598 159.512 56.3708 159.722 55.6618 159.76C54.9528 159.797 54.2454 159.661 53.6014 159.363C53.5384 159.34 53.4865 159.294 53.4563 159.234C53.4261 159.174 53.4198 159.105 53.4388 159.041C53.4604 158.977 53.5064 158.924 53.5669 158.894C53.6273 158.863 53.6974 158.858 53.7618 158.879Z" fill="white"/>
<path d="M93.3425 170.601C93.1699 170.713 92.9973 170.825 92.8246 170.941C90.5122 172.458 88.3273 174.159 86.2912 176.028C86.1315 176.17 85.9718 176.316 85.8165 176.462C80.9593 181.017 76.9924 186.432 74.1175 192.431C72.9757 194.819 72.0177 197.29 71.252 199.824C70.1946 203.322 69.3273 207.199 67.2343 210.06C67.0193 210.361 66.7858 210.649 66.5352 210.921H47.6207C47.5777 210.9 47.5345 210.882 47.4913 210.861L46.7361 210.895C46.7665 210.762 46.8008 210.624 46.8312 210.491C46.8484 210.413 46.8699 210.336 46.8872 210.258C46.9001 210.207 46.9131 210.155 46.9218 210.108C46.926 210.091 46.9304 210.073 46.9346 210.06C46.9433 210.013 46.9563 209.97 46.965 209.927C47.1548 209.157 47.3504 208.387 47.5518 207.616C47.5518 207.612 47.5518 207.612 47.556 207.608C49.1054 201.743 51.1594 195.955 54.0291 190.662C54.1155 190.503 54.2017 190.34 54.2967 190.18C55.6035 187.802 57.1031 185.534 58.7805 183.399C59.7028 182.233 60.6836 181.114 61.7193 180.047C64.4007 177.294 67.4996 174.98 70.9024 173.188C77.6863 169.616 85.5402 168.248 92.7902 170.429C92.9756 170.485 93.1571 170.541 93.3425 170.601Z" fill="#382C44"/>
<path d="M93.3 170.841C83.8813 172.706 75.2915 177.483 68.7507 184.493C67.3157 185.978 66.1243 187.678 65.2204 189.532C64.3984 191.367 64.0841 193.387 64.3101 195.384C64.4834 197.25 64.8773 199.139 64.5926 201.014C64.4326 201.972 64.0714 202.885 63.5326 203.694C62.9938 204.503 62.2896 205.189 61.4662 205.708C59.4482 207.053 57.0659 207.594 54.7178 208.043C52.1107 208.542 49.3947 209.019 47.2188 210.643C46.9551 210.839 46.6644 210.42 46.9276 210.224C50.7134 207.398 55.7866 207.991 59.928 205.997C61.8605 205.066 63.5234 203.549 64.0022 201.393C64.4208 199.507 64.0163 197.559 63.8245 195.672C63.5754 193.727 63.8076 191.751 64.5008 189.917C65.3071 188.023 66.4308 186.279 67.8237 184.761C70.905 181.293 74.5139 178.33 78.5182 175.98C83.0734 173.273 88.0595 171.363 93.2607 170.332C93.5827 170.269 93.6198 170.777 93.3 170.841Z" fill="white"/>
<path d="M70.7236 182.112C69.693 180.858 69.143 179.28 69.1717 177.659C69.2005 176.038 69.8062 174.48 70.8806 173.263C71.0989 173.018 71.4917 173.344 71.2731 173.59C70.2705 174.721 69.7064 176.173 69.6827 177.682C69.659 179.192 70.1773 180.66 71.1439 181.822C71.3536 182.075 70.9321 182.364 70.7236 182.112Z" fill="white"/>
<path d="M64.0974 194.45C67.4017 194.806 70.7195 193.908 73.389 191.934C73.6534 191.738 73.9442 192.157 73.6802 192.353C70.8983 194.402 67.4438 195.33 64.006 194.951C63.6784 194.915 63.7715 194.414 64.0974 194.45Z" fill="white"/>
<path d="M83.1605 173.944C83.4579 174.512 83.8921 174.997 84.4241 175.357C84.9562 175.716 85.5694 175.938 86.2087 176.003C86.5367 176.035 86.4432 176.536 86.1174 176.504C85.4113 176.43 84.7344 176.184 84.1457 175.788C83.557 175.392 83.0745 174.859 82.7402 174.234C82.7037 174.178 82.6901 174.11 82.7021 174.044C82.7141 173.978 82.7508 173.919 82.8048 173.879C82.8606 173.841 82.9293 173.827 82.9959 173.839C83.0626 173.851 83.1217 173.888 83.1605 173.944Z" fill="white"/>
<path d="M192.875 252.708C193.43 248.259 196.195 243.876 200.45 242.428C198.772 247.007 198.772 252.031 200.451 256.61C201.105 258.373 202.016 260.267 201.401 262.044C200.961 263.143 200.114 264.031 199.036 264.526C197.967 265.01 196.839 265.355 195.681 265.554L195.456 265.74C193.635 261.641 192.32 257.157 192.875 252.708Z" fill="#382C44"/>
<path d="M200.492 242.511C198.014 245.28 196.474 248.757 196.091 252.448C195.994 253.241 196.023 254.045 196.177 254.829C196.352 255.588 196.728 256.286 197.265 256.851C197.8 257.351 198.271 257.914 198.67 258.528C198.845 258.861 198.947 259.228 198.969 259.604C198.992 259.979 198.934 260.355 198.801 260.707C198.446 261.567 197.922 262.347 197.259 263C196.569 263.761 195.84 264.541 195.547 265.549C195.511 265.672 195.323 265.609 195.359 265.487C195.869 263.732 197.578 262.735 198.393 261.155C198.603 260.799 198.728 260.401 198.76 259.99C198.792 259.578 198.729 259.165 198.576 258.782C198.206 258.136 197.736 257.552 197.182 257.053C196.65 256.509 196.259 255.844 196.045 255.115C195.851 254.341 195.791 253.54 195.866 252.746C196.008 250.957 196.432 249.2 197.121 247.541C197.897 245.644 198.993 243.892 200.361 242.363C200.446 242.269 200.577 242.418 200.492 242.511Z" fill="white"/>
<path d="M196.144 251.252C195.532 251.104 194.992 250.744 194.622 250.235C194.251 249.727 194.074 249.104 194.122 248.478C194.132 248.351 194.33 248.36 194.32 248.487C194.274 249.071 194.439 249.651 194.785 250.124C195.131 250.596 195.635 250.93 196.206 251.065C196.33 251.094 196.267 251.282 196.144 251.252Z" fill="white"/>
<path d="M196.981 256.612C198.086 255.953 198.903 254.903 199.267 253.671C199.303 253.549 199.491 253.611 199.455 253.733C199.074 255.015 198.222 256.105 197.07 256.788C196.96 256.853 196.871 256.676 196.981 256.612Z" fill="white"/>
<path d="M198.081 245.831C198.306 245.937 198.554 245.987 198.803 245.974C199.051 245.962 199.293 245.888 199.506 245.759C199.615 245.692 199.703 245.869 199.595 245.935C199.359 246.076 199.092 246.158 198.817 246.172C198.543 246.187 198.268 246.134 198.019 246.019C197.994 246.01 197.974 245.992 197.963 245.969C197.951 245.945 197.948 245.919 197.956 245.894C197.964 245.869 197.982 245.848 198.005 245.837C198.029 245.825 198.056 245.823 198.081 245.831Z" fill="white"/>
<path d="M213.421 250.374C213.354 250.417 213.287 250.461 213.22 250.506C212.324 251.093 211.477 251.753 210.688 252.477C210.626 252.532 210.564 252.589 210.504 252.645C208.621 254.411 207.084 256.509 205.97 258.834C205.527 259.76 205.156 260.717 204.859 261.699C204.45 263.055 204.113 264.557 203.302 265.666C203.219 265.783 203.128 265.894 203.031 266H195.701C195.684 265.992 195.668 265.985 195.651 265.977L195.358 265.99C195.37 265.938 195.383 265.885 195.395 265.833C195.402 265.803 195.41 265.773 195.417 265.743C195.422 265.723 195.427 265.703 195.43 265.685C195.432 265.678 195.433 265.671 195.435 265.666C195.438 265.648 195.443 265.631 195.447 265.615C195.52 265.316 195.596 265.018 195.674 264.719L195.676 264.716C196.249 262.435 197.091 260.231 198.185 258.149C198.218 258.087 198.251 258.023 198.288 257.962C198.795 257.04 199.376 256.161 200.026 255.334C200.383 254.882 200.764 254.448 201.165 254.034C202.204 252.968 203.405 252.071 204.724 251.376C207.353 249.992 210.397 249.462 213.206 250.307C213.278 250.329 213.349 250.351 213.421 250.374Z" fill="#382C44"/>
<path d="M213.404 250.467C209.754 251.19 206.425 253.041 203.89 255.758C203.334 256.333 202.872 256.992 202.522 257.711C202.203 258.422 202.081 259.205 202.169 259.979C202.294 260.699 202.331 261.432 202.278 262.161C202.216 262.532 202.076 262.886 201.868 263.199C201.659 263.513 201.386 263.779 201.067 263.98C200.265 264.453 199.375 264.761 198.451 264.885C197.441 265.078 196.389 265.263 195.545 265.892C195.443 265.968 195.33 265.806 195.432 265.73C196.9 264.635 198.866 264.865 200.471 264.092C200.853 263.934 201.194 263.691 201.468 263.382C201.741 263.073 201.94 262.705 202.05 262.307C202.145 261.569 202.122 260.821 201.981 260.09C201.884 259.336 201.974 258.571 202.243 257.86C202.555 257.126 202.991 256.45 203.531 255.862C204.725 254.518 206.123 253.369 207.675 252.459C209.441 251.409 211.373 250.669 213.389 250.27C213.514 250.245 213.528 250.442 213.404 250.467Z" fill="white"/>
<path d="M204.655 254.835C204.255 254.349 204.042 253.738 204.053 253.109C204.064 252.481 204.299 251.877 204.715 251.406C204.8 251.311 204.952 251.437 204.868 251.533C204.479 251.971 204.26 252.533 204.251 253.118C204.242 253.703 204.443 254.272 204.817 254.723C204.899 254.821 204.735 254.933 204.655 254.835Z" fill="white"/>
<path d="M202.087 259.616C203.367 259.755 204.653 259.406 205.688 258.641C205.79 258.565 205.903 258.728 205.8 258.804C204.722 259.598 203.383 259.958 202.051 259.811C201.924 259.797 201.96 259.602 202.087 259.616Z" fill="white"/>
<path d="M209.475 251.669C209.59 251.889 209.758 252.078 209.964 252.217C210.17 252.356 210.408 252.442 210.656 252.467C210.783 252.48 210.747 252.674 210.621 252.662C210.347 252.633 210.085 252.537 209.856 252.384C209.628 252.231 209.441 252.024 209.312 251.782C209.298 251.76 209.292 251.734 209.297 251.708C209.302 251.683 209.316 251.66 209.337 251.644C209.358 251.63 209.385 251.624 209.411 251.629C209.437 251.633 209.46 251.648 209.475 251.669Z" fill="white"/>
<path d="M318.817 158.204C316.616 140.559 305.65 123.174 288.773 117.432C295.429 135.593 295.427 155.517 288.769 173.677C286.176 180.672 282.561 188.182 285.001 195.232C286.518 199.618 290.231 202.974 294.381 205.072C298.532 207.171 303.138 208.171 307.686 209.151L308.582 209.889C315.802 193.631 321.018 175.849 318.817 158.204Z" fill="#382C44"/>
<path d="M288.606 117.765C298.434 128.746 304.542 142.535 306.063 157.174C306.37 160.312 306.407 163.522 305.719 166.616C305.025 169.625 303.536 172.395 301.406 174.637C299.461 176.767 297.225 178.722 295.834 181.286C294.368 183.989 294.311 187.06 295.315 189.931C296.543 193.444 298.964 196.307 301.429 199.025C304.166 202.042 307.057 205.134 308.22 209.134C308.361 209.619 309.107 209.373 308.966 208.889C306.942 201.928 300.166 197.974 296.934 191.705C295.426 188.78 294.793 185.383 296.207 182.295C297.443 179.595 299.748 177.578 301.735 175.438C303.822 173.191 305.422 170.726 306.246 167.751C307.089 164.708 307.178 161.49 306.953 158.358C306.389 151.259 304.71 144.292 301.977 137.713C298.899 130.187 294.553 123.242 289.126 117.178C288.79 116.803 288.272 117.393 288.606 117.765Z" fill="white"/>
<path d="M305.852 152.432C308.28 151.844 310.42 150.414 311.889 148.398C313.358 146.382 314.061 143.911 313.872 141.427C313.831 140.924 313.046 140.962 313.086 141.466C313.267 143.779 312.612 146.081 311.24 147.955C309.869 149.83 307.87 151.153 305.605 151.687C305.113 151.804 305.363 152.548 305.852 152.432Z" fill="white"/>
<path d="M302.534 173.687C298.148 171.075 294.91 166.911 293.466 162.025C293.323 161.541 292.577 161.787 292.72 162.271C294.232 167.352 297.61 171.679 302.181 174.387C302.616 174.644 302.967 173.943 302.534 173.687Z" fill="white"/>
<path d="M298.17 130.93C297.278 131.352 296.294 131.547 295.308 131.498C294.321 131.448 293.363 131.154 292.518 130.644C292.086 130.38 291.735 131.082 292.165 131.343C293.101 131.903 294.16 132.226 295.249 132.284C296.339 132.341 297.426 132.132 298.416 131.674C298.513 131.638 298.593 131.567 298.639 131.476C298.686 131.384 298.695 131.278 298.666 131.179C298.633 131.08 298.562 130.999 298.469 130.952C298.376 130.906 298.269 130.898 298.17 130.93Z" fill="white"/>
<path d="M237.332 148.948C237.598 149.12 237.863 149.292 238.128 149.47C241.683 151.801 245.041 154.415 248.171 157.288C248.416 157.506 248.662 157.731 248.9 157.956C256.366 164.957 262.463 173.28 266.882 182.501C268.637 186.171 270.11 189.97 271.287 193.864C272.912 199.241 274.245 205.2 277.462 209.598C277.792 210.061 278.151 210.503 278.536 210.921H307.609C307.675 210.888 307.741 210.862 307.808 210.828L308.969 210.881C308.922 210.676 308.869 210.465 308.822 210.26C308.796 210.141 308.763 210.022 308.736 209.903C308.717 209.823 308.696 209.744 308.683 209.671C308.677 209.645 308.67 209.618 308.663 209.598C308.65 209.526 308.63 209.459 308.617 209.393C308.325 208.209 308.024 207.025 307.715 205.842C307.715 205.835 307.715 205.835 307.708 205.828C305.327 196.813 302.17 187.918 297.759 179.782C297.626 179.538 297.494 179.286 297.348 179.042C295.339 175.386 293.034 171.899 290.456 168.618C289.038 166.826 287.531 165.106 285.939 163.466C281.817 159.235 277.054 155.677 271.824 152.923C261.397 147.433 249.325 145.33 238.181 148.683C237.896 148.769 237.617 148.855 237.332 148.948Z" fill="#382C44"/>
<path d="M237.398 149.316C251.875 152.183 265.078 159.526 275.131 170.301C277.271 172.622 279.239 175.163 280.557 178.046C281.821 180.866 282.304 183.971 281.956 187.04C281.69 189.908 281.085 192.811 281.522 195.694C281.983 198.732 283.793 201.218 286.328 202.908C289.429 204.975 293.091 205.808 296.7 206.498C300.708 207.265 304.882 207.998 308.227 210.494C308.632 210.796 309.079 210.151 308.674 209.849C302.855 205.507 295.058 206.418 288.692 203.352C285.722 201.922 283.166 199.59 282.43 196.276C281.786 193.378 282.408 190.384 282.703 187.482C283.012 184.435 282.801 181.507 281.663 178.637C280.499 175.701 278.627 173.078 276.556 170.712C271.82 165.382 266.273 160.828 260.118 157.216C253.116 153.055 245.453 150.118 237.458 148.534C236.963 148.436 236.906 149.219 237.398 149.316Z" fill="white"/>
<path d="M272.099 166.641C273.683 164.714 274.528 162.288 274.484 159.796C274.44 157.305 273.509 154.91 271.857 153.04C271.522 152.662 270.918 153.164 271.254 153.542C272.795 155.281 273.662 157.512 273.699 159.832C273.735 162.152 272.938 164.409 271.453 166.195C271.13 166.583 271.778 167.027 272.099 166.641Z" fill="white"/>
<path d="M282.284 185.604C277.205 186.152 272.105 184.771 268.002 181.737C267.596 181.436 267.149 182.08 267.554 182.381C271.83 185.531 277.14 186.957 282.424 186.375C282.928 186.319 282.784 185.549 282.284 185.604Z" fill="white"/>
<path d="M252.983 154.085C252.525 154.958 251.858 155.704 251.04 156.257C250.223 156.809 249.28 157.15 248.297 157.249C247.793 157.299 247.937 158.07 248.438 158.021C249.523 157.906 250.563 157.528 251.468 156.919C252.373 156.311 253.115 155.491 253.629 154.531C253.685 154.445 253.706 154.34 253.687 154.239C253.669 154.138 253.612 154.047 253.529 153.986C253.443 153.927 253.338 153.905 253.236 153.923C253.133 153.942 253.042 154 252.983 154.085Z" fill="white"/>
<path d="M352.709 211.351H0.43154C0.317089 211.351 0.207324 211.306 0.126395 211.225C0.0454654 211.145 0 211.035 0 210.921C0 210.807 0.0454654 210.697 0.126395 210.617C0.207324 210.536 0.317089 210.491 0.43154 210.491H352.568C352.683 210.491 352.793 210.536 352.874 210.617C352.955 210.697 353 210.807 353 210.921C353 211.159 352.948 211.351 352.709 211.351Z" fill="#CACACA"/>
<path d="M123.562 249.218H45.7433C45.6289 249.218 45.5191 249.173 45.4382 249.092C45.3572 249.011 45.3118 248.902 45.3118 248.788C45.3118 248.674 45.3572 248.564 45.4382 248.483C45.5191 248.403 45.6289 248.357 45.7433 248.357H123.421C123.535 248.357 123.645 248.403 123.726 248.483C123.807 248.564 123.852 248.674 123.852 248.788C123.852 249.025 123.8 249.218 123.562 249.218Z" fill="#CACACA"/>
<path d="M245.687 266H167.869C167.755 266 167.645 265.955 167.564 265.874C167.483 265.794 167.438 265.684 167.438 265.57C167.438 265.456 167.483 265.346 167.564 265.266C167.645 265.185 167.755 265.14 167.869 265.14H245.546C245.661 265.14 245.771 265.185 245.852 265.266C245.932 265.346 245.978 265.456 245.978 265.57C245.978 265.808 245.926 266 245.687 266Z" fill="#CACACA"/>
<path d="M319.049 248.788H241.231C241.117 248.788 241.007 248.743 240.926 248.662C240.845 248.581 240.8 248.472 240.8 248.358C240.8 248.243 240.845 248.134 240.926 248.053C241.007 247.973 241.117 247.927 241.231 247.927H318.908C319.023 247.927 319.133 247.973 319.214 248.053C319.294 248.134 319.34 248.243 319.34 248.358C319.34 248.595 319.288 248.788 319.049 248.788Z" fill="#CACACA"/>
<path d="M143.814 232.436C138.98 232.436 134.555 231.974 131.039 230.882C126.859 229.585 124.235 227.486 123.238 224.641C122.769 223.432 122.629 222.122 122.832 220.842C123.035 219.563 123.574 218.36 124.393 217.354C130.576 209.321 152.032 207.055 154.911 206.787L160.751 195.76C161.125 193.129 159.357 191.137 162.411 191.087L198.546 190.598C201.546 190.535 200.695 192.387 201.209 194.953L206.714 204.753L183.02 214.724L186.602 223.428L186.368 223.564C179.434 227.575 159.491 232.435 143.814 232.436Z" fill="#382C44"/>
<path d="M203.434 205.171C203.434 205.171 236.524 201.395 234.366 216.499C232.208 231.603 207.031 242.302 168.904 216.499L173.221 208.947C173.221 208.947 187.428 208.242 196.06 204.466L203.434 205.171Z" fill="#382C44"/>
<path d="M156.586 136.744C156.586 136.744 150.297 135.604 148.581 145.296C146.866 154.988 144.119 177.946 144.119 177.946L135.587 207.436C134.581 207.969 133.748 208.776 133.184 209.763C132.621 210.751 132.351 211.877 132.406 213.012C132.461 214.147 132.838 215.242 133.494 216.171C134.15 217.1 135.058 217.823 136.111 218.257C137.164 218.69 138.318 218.816 139.44 218.62C140.563 218.423 141.605 217.913 142.447 217.147C143.289 216.382 143.895 215.393 144.195 214.298C144.494 213.202 144.475 212.043 144.139 210.958L155.554 179.658L157.73 152.71V138.589C157.73 138.206 157.623 137.83 157.421 137.504C157.219 137.179 156.93 136.915 156.586 136.744Z" fill="#F3F3F3"/>
<path d="M200.855 136.744C200.855 136.744 207.144 135.604 208.86 145.296C210.575 154.988 213.323 177.946 213.323 177.946L221.854 207.436C222.86 207.969 223.693 208.776 224.257 209.763C224.82 210.751 225.09 211.877 225.035 213.012C224.981 214.147 224.603 215.242 223.947 216.171C223.291 217.1 222.384 217.823 221.331 218.257C220.278 218.69 219.123 218.816 218.001 218.62C216.879 218.423 215.836 217.913 214.994 217.147C214.152 216.382 213.546 215.393 213.247 214.298C212.947 213.202 212.967 212.043 213.303 210.958L201.888 179.658L199.712 152.71V138.589C199.712 138.206 199.819 137.83 200.021 137.504C200.223 137.179 200.512 136.915 200.855 136.744Z" fill="#F3F3F3"/>
<path d="M200.376 128.732L188.479 124.296L165.421 123.999L155.496 128.732L158.283 144.708C158.283 144.708 152.655 154.211 158.852 163.715L160.242 197.581C160.242 197.581 182.474 210.436 201.239 194.999L196.998 163.512C196.998 163.512 204.092 148.903 198.593 143.476L200.376 128.732Z" fill="#382C44"/>
<path d="M195.53 133.697L200.376 128.732C200.376 128.732 210.951 134.279 210.733 152.83L197.393 148.73L195.53 133.697Z" fill="#382C44"/>
<path d="M160.878 133.697L155.731 128.564C155.731 128.564 146.647 135.57 146.865 154.121L159.016 148.731L160.878 133.697Z" fill="#382C44"/>
<path d="M194.436 219.631C194.436 219.631 190.731 211.857 184.543 215.584C178.354 219.311 166.968 225.501 166.968 225.501C166.968 225.501 164.305 229.94 170.12 228.772C175.936 227.605 194.617 226.694 194.617 226.694L194.436 219.631Z" fill="#F3F3F3"/>
<path d="M184.142 80.6602C184.194 80.6101 184.249 80.5651 184.301 80.5136C187.612 77.2117 188.283 72.5275 185.799 70.0511C183.453 67.7108 179.13 68.1831 175.867 71.0285C173.069 68.3726 169.317 67.6321 166.889 69.4656C164.089 71.5798 164.111 76.3116 166.938 80.0342C167.132 80.2891 167.335 80.5302 167.544 80.7621C163.781 82.1352 160.533 84.6277 158.238 87.9022C155.943 91.1767 154.712 95.0751 154.712 99.07V117.625C154.712 118.169 154.82 118.708 155.029 119.21C155.238 119.713 155.544 120.17 155.929 120.555C156.315 120.939 156.773 121.244 157.277 121.453C157.782 121.661 158.322 121.768 158.868 121.768H193.259C194.324 121.768 195.346 121.346 196.099 120.595C196.852 119.844 197.275 118.826 197.275 117.764V99.07C197.274 95.0214 196.01 91.0735 193.656 87.7744C191.303 84.4753 187.977 81.9888 184.142 80.6602Z" fill="#382C44"/>
<path d="M188.077 115.15C194.45 108.795 194.45 98.4917 188.077 92.1366C181.704 85.7815 171.37 85.7815 164.997 92.1366C158.624 98.4917 158.624 108.795 164.997 115.15C171.37 121.506 181.704 121.506 188.077 115.15Z" fill="#F3F3F3"/>
<path d="M159.388 93.4076C163.118 95.9707 167.544 97.3347 172.074 97.3167C170.458 98.4337 168.619 99.1882 166.682 99.5283C172.704 100.816 178.928 100.851 184.964 99.6307C186.306 99.4162 187.601 98.9728 188.792 98.32C189.385 97.9895 189.902 97.5383 190.309 96.9955C190.716 96.4528 191.004 95.8307 191.154 95.1697C191.555 92.8848 189.77 90.809 187.914 89.41C185.073 87.3007 181.797 85.8474 178.324 85.1554C174.851 84.4633 171.267 84.5497 167.831 85.4083C165.587 85.9866 163.34 86.9635 161.883 88.76C160.426 90.5565 159.994 93.326 161.382 95.1759L159.388 93.4076Z" fill="#382C44"/>
<path d="M72.0973 60.9341L72.6116 60.2428L86.3126 70.3764C85.568 68.1136 82.9325 60.9404 78.6122 58.0782C73.4509 54.6589 69.8197 55.7226 67.8413 58.6918C65.8629 61.661 66.2865 65.4111 71.4479 68.8305C75.8229 71.729 83.6168 71.326 85.8907 71.136L72.0973 60.9341Z" fill="#382C44"/>
<path d="M278.243 5.45287L278.879 6.03484L267.346 18.5685C269.681 18.0655 277.11 16.1979 280.414 12.211C284.361 7.44802 283.678 3.73613 280.922 1.4653C278.167 -0.805534 274.382 -0.77546 270.435 3.98754C267.088 8.02493 266.68 15.7963 266.633 18.0711L278.243 5.45287Z" fill="#382C44"/>
<path d="M92.2491 139.278L92.8852 139.86L81.3526 152.394C83.687 151.891 91.116 150.023 94.4201 146.036C98.3674 141.273 97.6842 137.561 94.9284 135.29C92.1726 133.02 88.3881 133.05 84.4406 137.813C81.0945 141.85 80.6858 149.621 80.6389 151.896L92.2491 139.278Z" fill="#382C44"/>
<path d="M189.767 19.8158L190.514 20.2469L181.971 34.9698C184.141 33.9755 190.99 30.5511 193.352 25.9463C196.173 20.4453 194.702 16.9683 191.519 15.3451C188.336 13.7218 184.648 14.5667 181.826 20.0679C179.434 24.731 180.719 32.4067 181.166 34.6379L189.767 19.8158Z" fill="#382C44"/>
<path d="M269.602 111.901L270.349 112.332L261.806 127.055C263.976 126.06 270.825 122.636 273.187 118.031C276.008 112.53 274.537 109.053 271.354 107.43C268.171 105.807 264.483 106.652 261.661 112.153C259.269 116.816 260.554 124.492 261.001 126.723L269.602 111.901Z" fill="#382C44"/>
</g>
<defs>
<clipPath id="clip0_128_572">
<rect width="353" height="266" fill="white"/>
</clipPath>
</defs>
</svg>
