<svg width="256" height="283" viewBox="0 0 256 283" fill="none" xmlns="http://www.w3.org/2000/svg">
<g clip-path="url(#clip0_128_632)">
<path d="M146.328 60.7943C147.675 61.1394 148.835 61.9962 149.559 63.1826C150.284 64.3689 150.517 65.791 150.208 67.1463C150.141 67.4208 150.052 67.6893 149.94 67.949L163.597 80.6071L154.323 82.7856L142.777 70.4313C141.735 69.8865 140.903 69.0122 140.411 67.9451C139.918 66.8779 139.793 65.6779 140.055 64.5322C140.21 63.8817 140.492 63.2681 140.884 62.7265C141.277 62.1849 141.772 61.7259 142.342 61.3756C142.912 61.0253 143.545 60.7906 144.206 60.685C144.867 60.5794 145.542 60.6049 146.193 60.76C146.238 60.7708 146.283 60.7822 146.328 60.7943Z" fill="#F3F3F3"/>
<path d="M159.089 75.1727L153.764 82.3682L167.108 94.9772C168.056 95.8803 169.22 96.5261 170.488 96.8531C171.756 97.1801 173.087 97.1776 174.354 96.8456C175.896 96.4342 177.263 95.533 178.248 94.2778C179.233 93.0226 179.783 91.4815 179.815 89.8866L180.168 60.8625C180.207 58.8341 179.466 56.8679 178.099 55.3684C176.732 53.8689 174.841 52.9501 172.817 52.8009C171.832 52.7253 170.841 52.8443 169.901 53.1514C168.962 53.4584 168.092 53.9474 167.342 54.5904C166.592 55.2334 165.975 56.0178 165.528 56.8988C165.081 57.7798 164.812 58.7402 164.736 59.7252C164.73 59.803 164.726 59.8809 164.722 59.9589C164.709 60.2359 164.71 60.5134 164.727 60.7902L166.349 81.7832L159.089 75.1727Z" fill="#382C44"/>
<path d="M120.934 190.583L93.8632 189.982L104.278 146.311L89.0449 104.474L89.0838 104.326L100.344 61.258L87.4811 22.0533L112.347 11.8853L127.011 62.7036L126.974 62.8368L115.792 103.742L131.034 146.226L131.002 146.366L120.934 190.583ZM95.1023 189.026L120.153 189.582L130.011 146.288L114.761 103.782L125.989 62.7108L111.705 13.2097L88.701 22.6164L101.369 61.2268L101.332 61.3667L90.0742 104.426L105.304 146.252L105.27 146.395L95.1023 189.026Z" fill="#382C44"/>
<path d="M154.47 279.118C150.919 279.431 147.342 278.947 144.002 277.701C140.661 276.456 137.641 274.48 135.162 271.919C131.921 268.503 129.696 264.107 127.545 259.855C126.919 258.618 126.272 257.339 125.613 256.112C124.879 254.776 124.562 253.25 124.704 251.731C124.845 250.213 125.438 248.771 126.406 247.593C127.334 246.415 128.593 245.541 130.022 245.085C131.452 244.628 132.985 244.61 134.424 245.032L134.738 245.123L137.563 256.141C137.984 254.497 138.889 250.795 139.46 247.167L139.508 246.863L139.79 246.988C142.739 248.293 145.513 249.963 148.045 251.961C152.531 255.557 156.18 260.086 158.737 265.234C161.295 270.382 162.7 276.025 162.855 281.77L162.863 282.113L154.47 279.118Z" fill="#F2F2F2"/>
<path d="M113.309 18.7229C113.309 20.9207 112.745 23.0817 111.67 24.9992C110.596 26.9167 109.047 28.5266 107.172 29.6748C106.89 29.8539 106.6 30.018 106.301 30.1663C105.232 30.7186 104.089 31.1158 102.908 31.3461C102.578 31.41 102.244 31.4591 101.904 31.4935C101.42 31.553 100.932 31.5825 100.444 31.582C99.0453 31.5843 97.6563 31.3568 96.3319 30.9086V30.9037C95.9054 30.7667 95.4881 30.6026 95.0827 30.4121C92.9453 29.4353 91.1168 27.8914 89.7961 25.9483C88.4755 24.0052 87.7132 21.7374 87.5924 19.3914C87.5825 19.1702 87.5776 18.9441 87.5776 18.7229C87.5776 18.6197 87.5776 18.5115 87.5825 18.4083C87.6652 15.0262 89.0782 11.8128 91.5151 9.46484C93.9521 7.11683 97.2168 5.82334 100.601 5.86473C103.986 5.90612 107.218 7.27906 109.597 9.68596C111.976 12.0929 113.31 15.3398 113.309 18.7229Z" fill="#382C44"/>
<path d="M126.588 61.2424C126.588 61.4046 126.584 61.5619 126.574 61.7241C126.566 62.0529 126.542 62.3811 126.5 62.7072C126.202 65.2917 125.127 67.7252 123.418 69.6872C121.708 71.6493 119.445 73.0477 116.924 73.6984C116.531 73.7967 116.137 73.8803 115.734 73.9442C115.069 74.049 114.396 74.1016 113.723 74.1015C113.107 74.1022 112.492 74.0578 111.883 73.9688C111.549 73.9245 111.214 73.8606 110.89 73.7869C109.277 73.4275 107.75 72.7562 106.395 71.8109C106.114 71.6192 105.839 71.4127 105.578 71.1964C104.05 69.9483 102.83 68.3654 102.013 66.5704C101.195 64.7754 100.802 62.8164 100.863 60.8451C100.924 58.8738 101.439 56.943 102.366 55.2023C103.294 53.4616 104.61 51.9575 106.213 50.8067V50.8018C106.488 50.5987 106.773 50.41 107.068 50.2365C108.525 49.3501 110.146 48.7666 111.834 48.5209C112.168 48.4718 112.508 48.4374 112.847 48.4177C113.137 48.3931 113.427 48.3833 113.723 48.3833C114.775 48.3824 115.824 48.5111 116.846 48.7667C117.242 48.8639 117.632 48.982 118.016 49.1206C120.524 50.0063 122.696 51.6479 124.231 53.819C125.766 55.9901 126.59 58.5837 126.588 61.2424Z" fill="#382C44"/>
<path d="M115.277 103.762C115.277 105.783 114.799 107.776 113.883 109.579C112.967 111.381 111.638 112.942 110.004 114.134C109.739 114.333 109.463 114.519 109.178 114.689C108.197 115.304 107.134 115.779 106.021 116.1C105.701 116.198 105.376 116.282 105.047 116.351C103.298 116.713 101.493 116.711 99.7452 116.346C99.3213 116.258 98.9026 116.146 98.491 116.011C96.0054 115.216 93.8203 113.685 92.2252 111.62C90.6302 109.555 89.7006 107.055 89.5597 104.45C89.5498 104.219 89.5449 103.993 89.5449 103.762C89.5449 103.664 89.5449 103.565 89.5498 103.467C89.5983 101.281 90.2047 99.1427 91.3116 97.2562C92.4185 95.3697 93.9891 93.797 95.8746 92.6872C96.2566 92.4566 96.6524 92.2497 97.0598 92.0678C98.7385 91.2982 100.564 90.9007 102.411 90.9028C102.529 90.9028 102.647 90.9028 102.765 90.9127C103.104 90.9167 103.442 90.938 103.778 90.9766C105.023 91.1042 106.241 91.4174 107.393 91.9056C107.703 92.0334 108.003 92.171 108.298 92.3283C110.401 93.4082 112.165 95.0468 113.396 97.0641C114.628 99.0813 115.278 101.399 115.277 103.762Z" fill="#382C44"/>
<path d="M130.523 146.257V146.281C130.523 146.606 130.508 146.925 130.479 147.24C130.284 149.864 129.287 152.365 127.624 154.405C125.961 156.444 123.711 157.924 121.178 158.644V158.649C120.81 158.757 120.435 158.846 120.057 158.914C119.266 159.065 118.462 159.141 117.657 159.141C117.146 159.142 116.635 159.111 116.127 159.047C115.798 159.013 115.468 158.959 115.144 158.895C113.437 158.558 111.816 157.876 110.383 156.889C110.091 156.692 109.808 156.481 109.537 156.255C108.142 155.121 107 153.707 106.186 152.105C105.371 150.502 104.902 148.747 104.809 146.952C104.715 145.157 104.999 143.362 105.642 141.684C106.286 140.005 107.274 138.48 108.544 137.207V137.202C108.795 136.952 109.055 136.711 109.326 136.485C110.583 135.411 112.038 134.592 113.609 134.076C113.924 133.968 114.239 133.875 114.564 133.796C115.576 133.546 116.614 133.421 117.657 133.422C117.844 133.422 118.031 133.427 118.218 133.437C118.601 133.452 118.985 133.486 119.359 133.535V133.54H119.364C122.449 133.95 125.281 135.465 127.333 137.803C129.386 140.142 130.519 143.146 130.523 146.257Z" fill="#382C44"/>
<path d="M120.195 188.801C120.195 192.15 118.887 195.368 116.55 197.768C114.213 200.169 111.031 201.563 107.681 201.655C104.331 201.747 101.077 200.528 98.6124 198.259C96.1475 195.989 94.6659 192.848 94.4827 189.504C94.4679 189.268 94.463 189.037 94.463 188.801C94.463 188.708 94.463 188.614 94.4679 188.521C94.5148 186.256 95.1601 184.045 96.3382 182.11C97.5164 180.176 99.1855 178.587 101.176 177.505C101.602 177.271 102.042 177.064 102.494 176.886C104.029 176.26 105.671 175.939 107.329 175.942C107.619 175.942 107.909 175.952 108.199 175.971C108.544 175.996 108.883 176.03 109.217 176.08C110.406 176.252 111.564 176.595 112.655 177.097C112.955 177.23 113.25 177.377 113.541 177.539C115.557 178.649 117.239 180.279 118.409 182.26C119.58 184.241 120.196 186.5 120.195 188.801Z" fill="#382C44"/>
<path d="M214.982 9.5309C231.971 43.2934 198.174 38.5811 193.058 38.155C183.202 37.3341 174.691 39.9907 175.61 17.5037C176.013 7.62732 186.841 0 196.731 0C206.621 0 210.539 0.700148 214.982 9.5309Z" fill="#382C44"/>
<path d="M210.626 268.288L217.766 268.287L221.162 240.764L210.625 240.765L210.626 268.288Z" fill="#F3F3F3"/>
<path d="M220.141 268.93V264.093L218.264 264.207L210.624 264.66L208.856 264.768L207.504 280.97L207.432 281.838H212.501L212.664 280.976L213.4 277.055L215.301 280.976L215.718 281.838H229.158C229.957 281.833 230.723 281.513 231.288 280.947C231.853 280.381 232.172 279.616 232.175 278.816C232.742 276.168 221.566 270.444 220.141 268.93Z" fill="#382C44"/>
<path d="M178.518 268.288L171.379 268.287L167.982 240.764L178.519 240.765L178.518 268.288Z" fill="#F3F3F3"/>
<path d="M169.003 268.93V264.093L170.88 264.207L178.52 264.66L180.288 264.768L181.64 280.97L181.713 281.838H176.643L176.48 280.976L175.744 277.055L173.843 280.976L173.427 281.838H159.987C159.187 281.833 158.421 281.513 157.856 280.947C157.291 280.381 156.973 279.616 156.969 278.816C156.402 276.168 167.579 270.444 169.003 268.93Z" fill="#382C44"/>
<path d="M167.866 130.501C167.866 130.501 162.955 157.978 165.599 173.458C165.801 177.151 162.926 188.248 163.342 201.237C164.026 222.588 168.063 248.887 166.784 254.817L180.555 253.834C180.555 253.834 181.014 248.035 181.784 239.142C181.876 238.078 180.455 236.794 180.555 235.646C180.673 234.307 182.314 233.091 182.443 231.651C182.549 230.459 182.659 229.236 182.773 227.983C182.863 226.986 181.444 226.353 181.539 225.324C181.656 224.048 183.288 222.368 183.412 221.049C184.162 213.029 185.021 204.277 185.939 195.693C186.543 190.053 187.172 184.484 187.814 179.243C187.953 178.107 186.809 176.78 186.949 175.677C187.092 174.549 188.52 173.645 188.664 172.557C188.866 171.028 190.68 170.722 190.883 169.286C191.046 168.135 189.598 165.835 189.761 164.753C191.355 154.156 192.939 147.042 194.309 147.142C195.439 147.225 196.739 152.125 198.084 159.779C198.254 160.744 200.057 161.847 200.228 162.896C200.405 163.985 198.95 165.023 199.128 166.193C199.318 167.437 198.563 168.944 198.752 170.269C198.936 171.549 200.063 172.645 200.246 173.99C202.299 189.105 204.305 208.013 205.835 223.58C205.955 224.797 207.491 226.116 207.605 227.29C207.726 228.532 206.423 229.626 206.536 230.811C206.69 232.428 208.941 234.154 209.081 235.646C209.219 237.123 207.247 238.368 207.37 239.702C208.135 247.996 208.589 253.342 208.589 253.342L222.36 253.834C222.36 253.834 221.886 176.941 224.152 169.201C226.419 161.461 224.908 133.597 219.241 130.501C213.575 127.406 167.866 130.501 167.866 130.501Z" fill="#382C44"/>
<path d="M187.31 40.2598L185.637 48.6201L168.752 54.2623L174.802 99.8967L168.289 129.402C166.609 131.347 165.967 133.306 166.989 135.289L222.36 135.86C223.402 133.869 223.759 131.909 222.36 129.962L219.901 126.029L217.441 120.131L217.933 117.673L216.689 112.329L215.743 108.984L214.147 103.338L224.078 57.4246L206.381 50.5708L203.203 40.2598L187.31 40.2598Z" fill="#382C44"/>
<path d="M193.477 36.1423C201.107 36.1423 207.292 29.9606 207.292 22.3351C207.292 14.7095 201.107 8.52783 193.477 8.52783C185.847 8.52783 179.662 14.7095 179.662 22.3351C179.662 29.9606 185.847 36.1423 193.477 36.1423Z" fill="#F3F3F3"/>
<path d="M211.424 17.045C209.766 18.6833 208.43 19.7985 205.914 19.7985C199.55 21.2532 193.494 22.093 188.145 21.5515C188.369 20.2008 188.168 18.8139 187.571 17.5819C187.499 18.2901 187.278 18.975 186.922 19.5913C186.566 20.2077 186.083 20.7413 185.505 21.1569C183.998 20.8629 182.528 20.4075 181.12 19.7985C179.154 19.8008 177.239 19.17 175.66 17.9995C172.965 6.37975 183.163 2.40092 193.746 3.73639C194.983 3.50024 196.239 3.38039 197.498 3.37842C205.386 3.37842 210.487 8.30721 211.424 17.045Z" fill="#382C44"/>
<path d="M111.44 74.9077C111.406 74.9864 111.367 75.0601 111.327 75.1338L105.735 86.1692C105.322 86.9901 104.944 87.8209 104.599 88.6713H103.542C103.928 87.6659 104.366 86.6814 104.855 85.7219L110.344 74.9077H111.44Z" fill="#382C44"/>
<path d="M112.026 46.3973H110.944C109.833 43.9948 108.431 41.738 106.768 39.6778C105.026 37.5201 103.559 35.1539 102.401 32.6338H103.493C104.581 34.9291 105.939 37.0874 107.536 39.0633C109.345 41.3024 110.855 43.7679 112.026 46.3973Z" fill="#382C44"/>
<path d="M113.664 131.928H112.572L105.922 118.165H107.019L113.664 131.928Z" fill="#382C44"/>
<path d="M114.569 160.438H115.626C115.552 160.63 115.478 160.817 115.4 161.009L109.99 174.202H108.927L114.49 160.635C114.514 160.571 114.544 160.502 114.569 160.438Z" fill="#382C44"/>
<path d="M119.487 160.438H120.544C120.47 160.63 120.396 160.817 120.318 161.009L114.908 174.202H113.845L119.408 160.635C119.432 160.571 119.462 160.502 119.487 160.438Z" fill="#382C44"/>
<path d="M116.359 74.9077C116.319 74.9814 116.285 75.0601 116.246 75.1338L110.654 86.1692C110.236 86.9901 109.857 87.8241 109.518 88.6713H108.455C108.845 87.6667 109.285 86.6823 109.773 85.7219L115.262 74.9077H116.359Z" fill="#382C44"/>
<path d="M116.939 46.3973H115.862C114.75 43.9954 113.348 41.7387 111.686 39.6778C109.944 37.5201 108.477 35.1539 107.319 32.6338H108.406C109.5 34.9272 110.858 37.0851 112.454 39.0633C114.262 41.3025 115.77 43.768 116.939 46.3973Z" fill="#382C44"/>
<path d="M118.582 131.928H117.49L110.845 118.165H111.937L118.582 131.928Z" fill="#382C44"/>
<path d="M108.175 160.438H109.232C109.158 160.63 109.085 160.817 109.006 161.009L103.596 174.202H102.534L108.096 160.635C108.121 160.571 108.15 160.502 108.175 160.438Z" fill="#382C44"/>
<path d="M105.047 74.9077C105.008 74.9864 104.973 75.0601 104.934 75.1338L99.3418 86.1692C98.9238 86.9901 98.5467 87.8241 98.2107 88.6713H97.1483C97.5363 87.6668 97.9745 86.6824 98.4615 85.7219L103.95 74.9077H105.047Z" fill="#382C44"/>
<path d="M105.632 46.3973H104.555C103.443 43.9946 102.039 41.7378 100.375 39.6778C98.633 37.5193 97.166 35.1533 96.0073 32.6338H97.0942C98.1876 34.9276 99.5461 37.0855 101.142 39.0633C102.949 41.3039 104.459 43.7691 105.632 46.3973Z" fill="#382C44"/>
<path d="M100.625 118.165L107.27 131.928H106.178L99.5287 118.165H100.625Z" fill="#382C44"/>
<path d="M32.4598 14.5352H6.3936C4.69791 14.5352 3.07168 15.2084 1.87265 16.4068C0.673612 17.6052 0 19.2306 0 20.9254C0 22.6202 0.673612 24.2455 1.87265 25.4439C3.07168 26.6423 4.69791 27.3156 6.3936 27.3156H32.4598C34.1555 27.3156 35.7818 26.6423 36.9808 25.4439C38.1798 24.2455 38.8534 22.6202 38.8534 20.9254C38.8534 19.2306 38.1798 17.6052 36.9808 16.4068C35.7818 15.2084 34.1555 14.5352 32.4598 14.5352Z" fill="#382C44"/>
<path d="M95.4592 18.2954L45.0878 19.0225L45.102 20.0056L95.4734 19.2785L95.4592 18.2954Z" fill="#382C44"/>
<path d="M41.8043 184.613H15.7381C14.0424 184.613 12.4162 185.286 11.2171 186.484C10.0181 187.683 9.34448 189.308 9.34448 191.003C9.34448 192.698 10.0181 194.323 11.2171 195.522C12.4162 196.72 14.0424 197.393 15.7381 197.393H41.8043C43.5 197.393 45.1262 196.72 46.3253 195.522C47.5243 194.323 48.1979 192.698 48.1979 191.003C48.1979 189.308 47.5243 187.683 46.3253 186.484C45.1262 185.286 43.5 184.613 41.8043 184.613Z" fill="#382C44"/>
<path d="M104.803 188.375L54.4316 189.102L54.4458 190.085L104.817 189.358L104.803 188.375Z" fill="#382C44"/>
<path d="M35.9026 99.5742H9.83635C8.14066 99.5742 6.51443 100.247 5.31539 101.446C4.11636 102.644 3.44275 104.27 3.44275 105.964C3.44275 107.659 4.11636 109.285 5.31539 110.483C6.51443 111.681 8.14066 112.355 9.83635 112.355H35.9026C37.5983 112.355 39.2245 111.681 40.4235 110.483C41.6226 109.285 42.2962 107.659 42.2962 105.964C42.2962 104.27 41.6226 102.644 40.4235 101.446C39.2245 100.247 37.5983 99.5742 35.9026 99.5742Z" fill="#382C44"/>
<path d="M98.9017 103.335L48.5303 104.062L48.5445 105.045L98.9159 104.318L98.9017 103.335Z" fill="#382C44"/>
<path d="M203.73 57.792H177.664C175.968 57.792 174.342 58.4652 173.143 59.6636C171.943 60.862 171.27 62.4874 171.27 64.1822C171.27 65.877 171.943 67.5024 173.143 68.7008C174.342 69.8992 175.968 70.5724 177.664 70.5724H203.73C205.425 70.5724 207.052 69.8992 208.251 68.7008C209.45 67.5024 210.123 65.877 210.123 64.1822C210.123 62.4874 209.45 60.862 208.251 59.6636C207.052 58.4652 205.425 57.792 203.73 57.792Z" fill="#382C44"/>
<path d="M171.44 63.2614L114.651 62.5344L114.665 61.5513L171.454 62.2783L171.44 63.2614Z" fill="#382C44"/>
<path d="M208.648 142.339H182.582C180.886 142.339 179.26 143.013 178.061 144.211C176.862 145.409 176.188 147.035 176.188 148.73C176.188 150.424 176.862 152.05 178.061 153.248C179.26 154.447 180.886 155.12 182.582 155.12H208.648C210.344 155.12 211.97 154.447 213.169 153.248C214.368 152.05 215.041 150.424 215.041 148.73C215.041 147.035 214.368 145.409 213.169 144.211C211.97 143.013 210.344 142.339 208.648 142.339Z" fill="#382C44"/>
<path d="M119.583 146.098L119.569 147.082L169.94 147.809L169.954 146.826L119.583 146.098Z" fill="#382C44"/>
<path d="M255.414 282.849L118.321 283C118.166 283 118.017 282.938 117.907 282.828C117.797 282.719 117.735 282.57 117.735 282.415C117.735 282.259 117.797 282.11 117.907 282.001C118.017 281.891 118.166 281.829 118.321 281.829L255.414 281.678C255.491 281.678 255.567 281.693 255.639 281.723C255.71 281.752 255.774 281.795 255.829 281.85C255.883 281.904 255.926 281.969 255.955 282.04C255.985 282.111 256 282.187 256 282.264C256 282.34 255.985 282.416 255.955 282.488C255.926 282.559 255.883 282.623 255.829 282.677C255.774 282.732 255.71 282.775 255.639 282.804C255.567 282.834 255.491 282.849 255.414 282.849Z" fill="#CACACA"/>
<path d="M193.542 63.7435C194.89 64.0886 196.049 64.9455 196.773 66.1318C197.498 67.3181 197.731 68.7402 197.423 70.0955C197.356 70.37 197.266 70.6385 197.155 70.8983L210.811 83.5564L201.537 85.7348L189.991 73.3805C188.949 72.8357 188.117 71.9615 187.625 70.8943C187.132 69.8271 187.007 68.6271 187.269 67.4814C187.424 66.8309 187.706 66.2173 188.098 65.6757C188.491 65.1341 188.986 64.6751 189.556 64.3248C190.126 63.9745 190.76 63.7399 191.42 63.6342C192.081 63.5286 192.756 63.5541 193.407 63.7092C193.452 63.72 193.497 63.7315 193.542 63.7435Z" fill="#F3F3F3"/>
<path d="M206.303 78.1219L200.978 85.3174L214.322 97.9264C215.27 98.8295 216.434 99.4753 217.702 99.8023C218.971 100.129 220.302 100.127 221.569 99.7948C223.111 99.3834 224.477 98.4822 225.462 97.227C226.447 95.9718 226.997 94.4307 227.029 92.8359L227.382 63.8117C227.421 61.7833 226.681 59.8171 225.313 58.3176C223.946 56.8181 222.056 55.8993 220.031 55.7501C219.046 55.6745 218.055 55.7936 217.116 56.1006C216.176 56.4076 215.307 56.8966 214.556 57.5396C213.806 58.1826 213.19 58.967 212.742 59.848C212.295 60.729 212.026 61.6895 211.951 62.6744C211.945 62.7522 211.94 62.8301 211.936 62.9081C211.923 63.1851 211.924 63.4626 211.941 63.7394L213.563 84.7324L206.303 78.1219Z" fill="#382C44"/>
</g>
<defs>
<clipPath id="clip0_128_632">
<rect width="256" height="283" fill="white"/>
</clipPath>
</defs>
</svg>
